<svg xmlns="http://www.w3.org/2000/svg" viewBox="0 0 1280 840">
  <defs>
    <style>
      .cls-1 {
        fill: #f0bc8c;
      }

      .cls-2 {
        fill: #f7cca9;
      }

      .cls-3 {
        fill: #d6a983;
      }

      .cls-32, .cls-4, .cls-8 {
        fill: #fff;
      }

      .cls-4, .cls-5 {
        stroke: #c3cbd5;
      }

      .cls-18, .cls-32, .cls-4, .cls-5 {
        stroke-miterlimit: 10;
      }

      .cls-5 {
        fill: #f1f1f2;
      }

      .cls-6 {
        fill: #f2f2f2;
      }

      .cls-14, .cls-29, .cls-38, .cls-7 {
        fill: #f4f9fa;
      }

      .cls-20, .cls-24, .cls-33, .cls-35, .cls-36, .cls-9 {
        fill: #353f50;
      }

      .cls-10, .cls-11 {
        fill: #4bddad;
      }

      .cls-11 {
        font-size: 12px;
      }

      .cls-11, .cls-14, .cls-20, .cls-24, .cls-29, .cls-33, .cls-36 {
        font-family: F37Ginger, F37 Ginger;
      }

      .cls-12 {
        letter-spacing: -0.02em;
      }

      .cls-13 {
        letter-spacing: -0.02em;
      }

      .cls-14, .cls-20, .cls-24, .cls-29, .cls-33, .cls-36 {
        font-size: 9px;
      }

      .cls-14, .cls-21, .cls-24, .cls-33 {
        letter-spacing: 0.05em;
      }

      .cls-15 {
        letter-spacing: -0.01em;
      }

      .cls-16, .cls-29 {
        letter-spacing: 0.04em;
      }

      .cls-17 {
        letter-spacing: 0.03em;
      }

      .cls-18 {
        fill: none;
        stroke: #f4f9fa;
        stroke-width: 2px;
      }

      .cls-19, .cls-33, .cls-35, .cls-36 {
        opacity: 0.5;
      }

      .cls-22 {
        letter-spacing: 0em;
      }

      .cls-23 {
        letter-spacing: 0.03em;
      }

      .cls-25, .cls-36 {
        letter-spacing: 0.05em;
      }

      .cls-26 {
        letter-spacing: 0.03em;
      }

      .cls-27 {
        letter-spacing: 0.02em;
      }

      .cls-28 {
        letter-spacing: -0.02em;
      }

      .cls-30 {
        letter-spacing: -0.05em;
      }

      .cls-31 {
        letter-spacing: 0.05em;
      }

      .cls-32 {
        stroke: #4bddad;
      }

      .cls-34 {
        letter-spacing: 0.04em;
      }

      .cls-37 {
        letter-spacing: 0.04em;
      }

      .cls-38 {
        opacity: 0.3;
      }
    </style>
  </defs>
  <title>handphoneUI</title>
  <g id="handphone">
    <g id="hand-underlay">
      <path id="armthumb" class="cls-1" d="M479,276c11,65.88-9.14,138.48,13,202L313,852H511L630,548c35-15,90.25-50.44,106-74L571,376.58c-37-11.58-45-49.58-48-84.39-3.06-27.19-14.33-34.74-20.6-38.3-7.32-4.15-17.46-.89-21.68,2.68C479.8,257,479,270,479,276Z"/>
      <path id="thumbnail" class="cls-2" d="M478,257a198.65,198.65,0,0,0,3,33s5-2,5-6-3-27-3-27A4,4,0,0,0,478,257Z"/>
      <path id="indexfinger" class="cls-1" d="M729.5,245.5a22,22,0,0,1-15.56-37.56l50.5-50.5a22,22,0,0,1,31.11,31.11l-50.5,50.5A21.93,21.93,0,0,1,729.5,245.5Z"/>
      <path id="shadow" class="cls-3" d="M526.89,463.38C528,477,540,489,554.38,491.93a52.1,52.1,0,0,0,8.5,1.38c2.63.49,5.27.89,7.87,1.24,5.2.69,10.24,1.15,14.73,1.58q4.81.6,9.63,1c19.13,1.74,37.95.28,56.88-1l9.47-.63c2.44-.06,4.89-.08,7.35-.07s4.92,0,7.38,0C697,493,731,499,734,474c0-3-10-7-16.39-11.27a76.32,76.32,0,0,0-9.18-5l-10.76-6.34L569,375.38,559.89,370c-1.65-1.17-3.35-2.25-5.08-3.28C546,361,537,358,529,351c-1,14-4,28-4.17,41.8-.14,2.25-.25,4.52-.36,6.79-.31,6.81-.53,13.65-.61,20.5q-.05,4.11,0,8.23C524,437,523,446,525.94,454.8,526.57,460.23,526.89,463.38,526.89,463.38Z"/>
    </g>
    <g id="phone">
      <rect id="outline" class="cls-4" x="528.93" y="14.29" width="225.78" height="475.43" rx="31.82" ry="31.82"/>
      <circle id="home-btn" class="cls-5" cx="641.22" cy="462.77" r="18.47"/>
      <rect id="speaker" class="cls-5" x="622.69" y="38.16" width="36.81" height="3.68" rx="1.82" ry="1.82"/>
      <rect id="UI-holder" class="cls-6" x="540" y="84.6" width="200" height="334.93"/>
      <g id="hand-overlay">
        <path id="finger" class="cls-1" d="M751,298a22,22,0,0,1-15.56-37.56l29-29a22,22,0,0,1,31.11,31.11l-29,29A21.93,21.93,0,0,1,751,298Z"/>
        <path id="finger-2" data-name="finger" class="cls-1" d="M751,367a22,22,0,0,1-15.56-37.56l24-24a22,22,0,0,1,31.11,31.11l-24,24A21.93,21.93,0,0,1,751,367Z"/>
        <path id="finger-3" data-name="finger" class="cls-1" d="M751,434a22,22,0,0,1-15.56-37.56l19.5-19.5a22,22,0,0,1,31.11,31.11l-19.5,19.5A21.93,21.93,0,0,1,751,434Z"/>
        <path id="fingernail" class="cls-2" d="M763,278c5.22,7.13-7.16,16-16,16a16,16,0,0,1-16-16c0-8.84,8.24-20.23,16-16C751.05,264.21,758.17,271.39,763,278Z"/>
        <path id="fingernail-2" data-name="fingernail" class="cls-2" d="M764,348c5.22,7.13-7.16,16-16,16a16,16,0,0,1-16-16c0-8.84,8.24-20.23,16-16C752.05,334.21,759.17,341.39,764,348Z"/>
        <path id="fingernail-3" data-name="fingernail" class="cls-2" d="M764,414c5.22,7.13-7.16,16-16,16a16,16,0,0,1-16-16c0-8.84,8.24-20.23,16-16C752.05,400.21,759.17,407.39,764,414Z"/>
      </g>
    </g>
    <g id="UI">
      <rect id="BG" class="cls-7" x="540" y="84.6" width="200" height="334.93"/>
      <rect id="topBG" class="cls-8" x="540" y="84.82" width="200" height="100.48"/>
      <rect id="bar" class="cls-9" x="540" y="187" width="200" height="38"/>
      <circle id="record-btn" class="cls-10" cx="640" cy="126" r="19"/>
      <text class="cls-11" transform="translate(623.33 157.16)"><tspan class="cls-12">r</tspan><tspan x="4.3" y="0">eco</tspan><tspan class="cls-13" x="24.35" y="0">r</tspan><tspan x="28.64" y="0">d</tspan></text>
      <text class="cls-14" transform="translate(589.82 208.94)">PRI<tspan class="cls-15" x="15.05" y="0">VA</tspan><tspan x="27.58" y="0">TE </tspan><tspan class="cls-16" x="42.01" y="0">C</tspan><tspan x="48.81" y="0">OLL</tspan><tspan class="cls-17" x="67.74" y="0">E</tspan><tspan x="73.14" y="0">CTION</tspan></text>
      <polyline id="back" class="cls-18" points="555 201.86 550 206.86 555 211.14"/>
      <g id="listItem" class="cls-19">
        <text class="cls-20" transform="translate(575.96 256.94)"><tspan class="cls-21">Science</tspan><tspan class="cls-22" x="35.16" y="0"> </tspan><tspan class="cls-21" x="37.59" y="0">101, </tspan><tspan class="cls-23" x="57.21" y="0">L</tspan><tspan class="cls-21" x="62.5" y="0">ectu</tspan><tspan class="cls-23" x="82.45" y="0">r</tspan><tspan class="cls-21" x="86.12" y="0">e</tspan><tspan x="91.64" y="0"> </tspan><tspan class="cls-21" x="94.07" y="0">1</tspan></text>
        <g id="Sound_wave_2" data-name="Sound wave 2">
          <path class="cls-9" d="M550.8,257.07a.8.8,0,0,1-.8-.8v-4a.8.8,0,0,1,1.61,0v4A.8.8,0,0,1,550.8,257.07Z"/>
          <path class="cls-9" d="M553.22,260.28a.8.8,0,0,1-.8-.8V249a.8.8,0,1,1,1.61,0v10.46A.8.8,0,0,1,553.22,260.28Z"/>
          <path class="cls-9" d="M555.63,263.5a.8.8,0,0,1-.8-.8V245.8a.8.8,0,1,1,1.61,0V262.7A.8.8,0,0,1,555.63,263.5Z"/>
          <path class="cls-9" d="M558,262.7a.8.8,0,0,1-.8-.8V246.61a.8.8,0,1,1,1.61,0v15.28A.8.8,0,0,1,558,262.7Z"/>
          <path class="cls-9" d="M560.46,259.48a.8.8,0,0,1-.8-.8v-8.85a.8.8,0,1,1,1.61,0v8.85A.8.8,0,0,1,560.46,259.48Z"/>
          <path class="cls-9" d="M562.87,262.7a.8.8,0,0,1-.8-.8V246.61a.8.8,0,1,1,1.61,0v15.28A.8.8,0,0,1,562.87,262.7Z"/>
          <path class="cls-9" d="M565.28,259.48a.8.8,0,0,1-.8-.8v-8.85a.8.8,0,1,1,1.61,0v8.85A.8.8,0,0,1,565.28,259.48Z"/>
          <path class="cls-9" d="M567.7,257.07a.8.8,0,0,1-.8-.8v-4a.8.8,0,0,1,1.61,0v4A.8.8,0,0,1,567.7,257.07Z"/>
        </g>
        <text class="cls-24" transform="translate(725.31 256.08)">&gt;</text>
      </g>
      <g id="listItem-2" data-name="listItem" class="cls-19">
        <text class="cls-24" transform="translate(575.96 289.94)">Science<tspan class="cls-22" x="35.16" y="0"> </tspan><tspan x="37.59" y="0">101, </tspan><tspan class="cls-23" x="57.21" y="0">L</tspan><tspan x="62.5" y="0">ectu</tspan><tspan class="cls-23" x="82.45" y="0">r</tspan><tspan x="86.12" y="0">e</tspan><tspan class="cls-23" x="91.64" y="0"> </tspan><tspan x="94.34" y="0">2</tspan></text>
        <g id="Sound_wave_2-2" data-name="Sound wave 2">
          <path class="cls-9" d="M550.8,290.07a.8.8,0,0,1-.8-.8v-4a.8.8,0,0,1,1.61,0v4A.8.8,0,0,1,550.8,290.07Z"/>
          <path class="cls-9" d="M553.22,293.28a.8.8,0,0,1-.8-.8V282a.8.8,0,0,1,1.61,0v10.46A.8.8,0,0,1,553.22,293.28Z"/>
          <path class="cls-9" d="M555.63,296.5a.8.8,0,0,1-.8-.8V278.8a.8.8,0,0,1,1.61,0V295.7A.8.8,0,0,1,555.63,296.5Z"/>
          <path class="cls-9" d="M558,295.7a.8.8,0,0,1-.8-.8V279.61a.8.8,0,1,1,1.61,0v15.28A.8.8,0,0,1,558,295.7Z"/>
          <path class="cls-9" d="M560.46,292.48a.8.8,0,0,1-.8-.8v-8.85a.8.8,0,1,1,1.61,0v8.85A.8.8,0,0,1,560.46,292.48Z"/>
          <path class="cls-9" d="M562.87,295.7a.8.8,0,0,1-.8-.8V279.61a.8.8,0,1,1,1.61,0v15.28A.8.8,0,0,1,562.87,295.7Z"/>
          <path class="cls-9" d="M565.28,292.48a.8.8,0,0,1-.8-.8v-8.85a.8.8,0,1,1,1.61,0v8.85A.8.8,0,0,1,565.28,292.48Z"/>
          <path class="cls-9" d="M567.7,290.07a.8.8,0,0,1-.8-.8v-4a.8.8,0,0,1,1.61,0v4A.8.8,0,0,1,567.7,290.07Z"/>
        </g>
        <text class="cls-24" transform="translate(725.31 289.08)">&gt;</text>
      </g>
      <g id="listItem-3" data-name="listItem" class="cls-19">
        <text class="cls-24" transform="translate(575.96 322.94)">N<tspan class="cls-25" x="7.88" y="0">o</tspan><tspan class="cls-26" x="13.5" y="0">t</tspan><tspan x="16.96" y="0">e</tspan><tspan class="cls-27" x="22.48" y="0"> </tspan><tspan class="cls-28" x="25.09" y="0">T</tspan><tspan x="30.44" y="0">o</tspan><tspan class="cls-17" x="36.11" y="0"> </tspan><tspan x="38.81" y="0">Sel</tspan><tspan class="cls-16" x="52.5" y="0">f</tspan><tspan class="cls-22" x="55.84" y="0"> </tspan><tspan x="58.27" y="0">1</tspan></text>
        <g id="Sound_wave_2-3" data-name="Sound wave 2">
          <path class="cls-9" d="M550.8,323.07a.8.8,0,0,1-.8-.8v-4a.8.8,0,0,1,1.61,0v4A.8.8,0,0,1,550.8,323.07Z"/>
          <path class="cls-9" d="M553.22,326.28a.8.8,0,0,1-.8-.8V315a.8.8,0,0,1,1.61,0v10.46A.8.8,0,0,1,553.22,326.28Z"/>
          <path class="cls-9" d="M555.63,329.5a.8.8,0,0,1-.8-.8V311.8a.8.8,0,0,1,1.61,0V328.7A.8.8,0,0,1,555.63,329.5Z"/>
          <path class="cls-9" d="M558,328.7a.8.8,0,0,1-.8-.8V312.61a.8.8,0,1,1,1.61,0v15.28A.8.8,0,0,1,558,328.7Z"/>
          <path class="cls-9" d="M560.46,325.48a.8.8,0,0,1-.8-.8v-8.85a.8.8,0,1,1,1.61,0v8.85A.8.8,0,0,1,560.46,325.48Z"/>
          <path class="cls-9" d="M562.87,328.7a.8.8,0,0,1-.8-.8V312.61a.8.8,0,1,1,1.61,0v15.28A.8.8,0,0,1,562.87,328.7Z"/>
          <path class="cls-9" d="M565.28,325.48a.8.8,0,0,1-.8-.8v-8.85a.8.8,0,1,1,1.61,0v8.85A.8.8,0,0,1,565.28,325.48Z"/>
          <path class="cls-9" d="M567.7,323.07a.8.8,0,0,1-.8-.8v-4a.8.8,0,0,1,1.61,0v4A.8.8,0,0,1,567.7,323.07Z"/>
        </g>
        <text class="cls-24" transform="translate(725.31 322.08)">&gt;</text>
      </g>
    </g>
    <g id="UI2">
      <rect id="BG-2" data-name="BG" class="cls-7" x="540" y="84.6" width="200" height="334.93"/>
      <rect id="topBG-2" data-name="topBG" class="cls-8" x="540" y="84.82" width="200" height="100.48"/>
      <circle id="record-btn-2" data-name="record-btn" class="cls-10" cx="640" cy="126" r="19"/>
      <text class="cls-11" transform="translate(623.33 157.16)"><tspan class="cls-12">r</tspan><tspan x="4.3" y="0">eco</tspan><tspan class="cls-13" x="24.35" y="0">r</tspan><tspan x="28.64" y="0">d</tspan></text>
      <g id="groups">
        <rect id="bar-2" data-name="bar" class="cls-9" x="540" y="187" width="200" height="38"/>
        <text class="cls-29" transform="translate(608.18 208.94)">C<tspan class="cls-21" x="6.79" y="0">OLL</tspan><tspan class="cls-23" x="25.73" y="0">E</tspan><tspan class="cls-21" x="31.13" y="0">CTIONS</tspan></text>
        <g id="listItem-4" data-name="listItem" class="cls-19">
          <text class="cls-24" transform="translate(575.96 256.94)">Lig<tspan class="cls-16" x="14.32" y="0">ht</tspan><tspan class="cls-27" x="23.41" y="0"> </tspan><tspan class="cls-30" x="26.02" y="0">Y</tspan><tspan class="cls-31" x="31.37" y="0">ea</tspan><tspan class="cls-25" x="42.97" y="0">r</tspan><tspan x="46.77" y="0">s</tspan><tspan class="cls-23" x="51.12" y="0" xml:space="preserve"> A</tspan><tspan class="cls-25" x="60.37" y="0">w</tspan><tspan x="68.14" y="0">a</tspan><tspan class="cls-16" x="74.22" y="0">y</tspan></text>
          <text class="cls-24" transform="translate(725.31 256.08)">&gt;</text>
        </g>
        <g id="group">
          <rect class="cls-32" x="546" y="231" width="189" height="38"/>
          <text class="cls-33" transform="translate(579.96 253.94)">Pri<tspan class="cls-25" x="12.52" y="0">v</tspan><tspan x="17.55" y="0">a</tspan><tspan class="cls-34" x="23.63" y="0">t</tspan><tspan x="27.1" y="0">e Collection</tspan></text>
          <path class="cls-35" d="M572.33,245.09l-.33-.67a1.66,1.66,0,0,0-1.49-.92h-3.68a1.66,1.66,0,0,0-1.49.92l-.6,1.19a1,1,0,0,1-.89.55h-4.51A2.33,2.33,0,0,0,557,248.5v6.67a2.33,2.33,0,0,0,2.33,2.33h11.33a2.33,2.33,0,0,0,2.33-2.33v-7.25A6.37,6.37,0,0,0,572.33,245.09Z"/>
        </g>
        <g id="group-2" data-name="group">
          <rect class="cls-4" x="546" y="275.67" width="189" height="38"/>
          <text class="cls-36" transform="translate(579.96 298.61)">As<tspan class="cls-31" x="10.99" y="0">t</tspan><tspan class="cls-23" x="14.59" y="0">r</tspan><tspan class="cls-21" x="18.26" y="0">olog</tspan><tspan class="cls-16" x="38.57" y="0">y</tspan></text>
          <path class="cls-35" d="M572.33,289.75l-.33-.67a1.66,1.66,0,0,0-1.49-.92h-3.68a1.66,1.66,0,0,0-1.49.92l-.6,1.19a1,1,0,0,1-.89.55h-4.51a2.33,2.33,0,0,0-2.33,2.33v6.67a2.33,2.33,0,0,0,2.33,2.33h11.33a2.33,2.33,0,0,0,2.33-2.33v-7.25A6.37,6.37,0,0,0,572.33,289.75Z"/>
        </g>
        <g id="group-3" data-name="group">
          <rect class="cls-4" x="546" y="320.33" width="189" height="38"/>
          <text class="cls-33" transform="translate(579.96 343.27)">Li<tspan class="cls-26" x="8.24" y="0">t</tspan><tspan x="11.7" y="0">e</tspan><tspan class="cls-23" x="17.22" y="0">r</tspan><tspan x="20.89" y="0">atu</tspan><tspan class="cls-17" x="36.2" y="0">r</tspan><tspan x="39.87" y="0">e</tspan></text>
          <path class="cls-35" d="M572.33,334.42l-.33-.67a1.66,1.66,0,0,0-1.49-.92h-3.68a1.66,1.66,0,0,0-1.49.92l-.6,1.19a1,1,0,0,1-.89.55h-4.51a2.33,2.33,0,0,0-2.33,2.33v6.67a2.33,2.33,0,0,0,2.33,2.33h11.33A2.33,2.33,0,0,0,573,344.5v-7.25A6.37,6.37,0,0,0,572.33,334.42Z"/>
        </g>
        <g id="group-4" data-name="group">
          <rect class="cls-4" x="546" y="365" width="189" height="38"/>
          <text class="cls-33" transform="translate(579.96 387.94)">N<tspan class="cls-25" x="7.88" y="0">o</tspan><tspan class="cls-26" x="13.5" y="0">t</tspan><tspan x="16.96" y="0">es</tspan><tspan class="cls-16" x="26.83" y="0"> </tspan><tspan class="cls-26" x="29.62" y="0">t</tspan><tspan class="cls-31" x="33.08" y="0">o</tspan><tspan class="cls-23" x="38.75" y="0"> </tspan><tspan x="41.45" y="0">Sel</tspan><tspan class="cls-37" x="55.14" y="0">f</tspan></text>
          <path class="cls-35" d="M572.33,379.09l-.33-.67a1.66,1.66,0,0,0-1.49-.92h-3.68a1.66,1.66,0,0,0-1.49.92l-.6,1.19a1,1,0,0,1-.89.55h-4.51A2.33,2.33,0,0,0,557,382.5v6.67a2.33,2.33,0,0,0,2.33,2.33h11.33a2.33,2.33,0,0,0,2.33-2.33v-7.25A6.37,6.37,0,0,0,572.33,379.09Z"/>
        </g>
        <g id="plus-btn">
          <circle class="cls-38" cx="721" cy="206" r="13"/>
          <path class="cls-7" d="M721.51,201.74v3.76h3.62v1h-3.62v3.79h-1v-3.79h-3.62v-1h3.62v-3.76Z"/>
        </g>
      </g>
    </g>
  </g>
</svg>
