<svg xmlns="http://www.w3.org/2000/svg" viewBox="0 0 1280 840" id="handphone-root">
  <defs>
    <style>
      .flesh {
        fill: #f0bc8c;
      }

      .nail {
        fill: #f7cca9;
      }

      .flesh-shadow {
        fill: #d6a983;
      }

      .cls-4 {
        fill: #fff;
      }

      .cls-4, .cls-5 {
        stroke: #c3cbd5;
        stroke-miterlimit: 10;
      }

      .cls-5 {
        fill: #f1f1f2;
      }

      .cls-6 {
        fill: #f2f2f2;
      }
    </style>
    <filter id="phone-blur" x="-20%" y="-20%" width="140%" height="140%">
    <feGaussianBlur id="phoneBlurAmt" stdDeviation="0"/></filter>
  </defs>
  <title>handphone</title>
  <g id="handphone" filter="url('#phone-blur')">
    <g id="hand-underlay">
      <path id="armthumb" class="flesh" d="M479,276c11,65.88-9.14,138.48,13,202L313,852H511L630,548c35-15,90.25-50.44,106-74L571,376.58c-37-11.58-45-49.58-48-84.39-3.06-27.19-14.33-34.74-20.6-38.3-7.32-4.15-17.46-.89-21.68,2.68C479.8,257,479,270,479,276Z"/>
      <path id="thumbnail" class="nail" d="M478,257a198.65,198.65,0,0,0,3,33s5-2,5-6-3-27-3-27A4,4,0,0,0,478,257Z"/>
      <path id="indexfinger" class="flesh" d="M729.5,245.5a22,22,0,0,1-15.56-37.56l50.5-50.5a22,22,0,0,1,31.11,31.11l-50.5,50.5A21.93,21.93,0,0,1,729.5,245.5Z"/>
      <path id="shadow" class="flesh-shadow" d="M526.89,463.38C528,477,540,489,554.38,491.93a52.1,52.1,0,0,0,8.5,1.38c2.63.49,5.27.89,7.87,1.24,5.2.69,10.24,1.15,14.73,1.58q4.81.6,9.63,1c19.13,1.74,37.95.28,56.88-1l9.47-.63c2.44-.06,4.89-.08,7.35-.07s4.92,0,7.38,0C697,493,731,499,734,474c0-3-10-7-16.39-11.27a76.32,76.32,0,0,0-9.18-5l-10.76-6.34L569,375.38,559.89,370c-1.65-1.17-3.35-2.25-5.08-3.28C546,361,537,358,529,351c-1,14-4,28-4.17,41.8-.14,2.25-.25,4.52-.36,6.79-.31,6.81-.53,13.65-.61,20.5q-.05,4.11,0,8.23C524,437,523,446,525.94,454.8,526.57,460.23,526.89,463.38,526.89,463.38Z"/>
    </g>
    <g id="phone">
      <rect id="outline" class="cls-4" x="528.93" y="14.29" width="225.78" height="475.43" rx="31.82" ry="31.82"/>
      <circle id="home-btn" class="cls-5" cx="641.22" cy="462.77" r="18.47"/>
      <rect id="speaker" class="cls-5" x="622.69" y="38.16" width="36.81" height="3.68" rx="1.82" ry="1.82"/>
      <rect id="UI-holder" class="cls-6" x="540" y="84.6" width="200" height="334.93"/>
      <g id="hand-overlay">
        <path id="finger" class="flesh" d="M751,298a22,22,0,0,1-15.56-37.56l29-29a22,22,0,0,1,31.11,31.11l-29,29A21.93,21.93,0,0,1,751,298Z"/>
        <path id="finger-2" data-name="finger" class="flesh" d="M751,367a22,22,0,0,1-15.56-37.56l24-24a22,22,0,0,1,31.11,31.11l-24,24A21.93,21.93,0,0,1,751,367Z"/>
        <path id="finger-3" data-name="finger" class="flesh" d="M751,434a22,22,0,0,1-15.56-37.56l19.5-19.5a22,22,0,0,1,31.11,31.11l-19.5,19.5A21.93,21.93,0,0,1,751,434Z"/>
        <path id="fingernail" class="nail" d="M763,278c5.22,7.13-7.16,16-16,16a16,16,0,0,1-16-16c0-8.84,8.24-20.23,16-16C751.05,264.21,758.17,271.39,763,278Z"/>
        <path id="fingernail-2" data-name="fingernail" class="nail" d="M764,348c5.22,7.13-7.16,16-16,16a16,16,0,0,1-16-16c0-8.84,8.24-20.23,16-16C752.05,334.21,759.17,341.39,764,348Z"/>
        <path id="fingernail-3" data-name="fingernail" class="nail" d="M764,414c5.22,7.13-7.16,16-16,16a16,16,0,0,1-16-16c0-8.84,8.24-20.23,16-16C752.05,400.21,759.17,407.39,764,414Z"/>
      </g>
    </g>
    <g id="point-hand">
      <path id="hand" class="flesh" d="M632.87,182a22,22,0,0,0-10.1,29.43c-5.76-1.32,103.61,227.65,108.73,240,4.2,10.17-47.25.2-74.07-9.7-25.92-8.76-37.54-1.75-43.42,2.42-6.86,4.87-8.21,15.43-6.77,20.77,0,1.06,149.25,82.5,227.25,71.5.1.11,169.5,316.5,169.5,316.5h199L934.49,453.39a183.07,183.07,0,0,0-2.14-20.82c-4.76-49.17-25.64-91.28-52.24-132.46q-3.32-5.15-6.76-10.28C862,274,850,247,827,256a16.79,16.79,0,0,0-9,8.16,22.1,22.1,0,0,0-2.76,12.45l-2.64-5.39A22,22,0,0,0,771,283.29a22,22,0,0,0-39.78,16.26c.75,9.12-4.71,12-6.71,9s-62.2-116.37-62.2-116.37A22,22,0,0,0,632.87,182Z"/>
      <path id="fingernail-4" data-name="fingernail" class="nail" d="M636.68,215.12c-8.35,2.9-13.2-11.53-10.62-20a16,16,0,0,1,20-10.62c8.45,2.59,16.93,13.8,10.62,20C653.37,207.73,644.41,212.43,636.68,215.12Z"/>
      <path id="thumbnail-2" data-name="thumbnail" class="nail" d="M609.35,465.67a198.65,198.65,0,0,0,29.31,15.46s1-5.28-2.31-7.46-24.28-12.19-24.28-12.19A4,4,0,0,0,609.35,465.67Z"/>
    </g>
  </g>
</svg>
