<svg xmlns="http://www.w3.org/2000/svg" viewBox="0 0 1280 840">
  <defs>
    <style>
      .cls-1 {
        fill: #f0bc8c;
      }

      .cls-2 {
        fill: #f7cca9;
      }

      .cls-3 {
        fill: #d6a983;
      }

      .cls-13, .cls-4 {
        fill: #fff;
      }

      .cls-4, .cls-5 {
        stroke: #c3cbd5;
        stroke-miterlimit: 10;
      }

      .cls-5 {
        fill: #f1f1f2;
      }

      .cls-6 {
        fill: #f2f2f2;
      }

      .cls-23, .cls-7 {
        fill: #353f50;
      }

      .cls-14, .cls-15, .cls-8 {
        font-size: 9px;
      }

      .cls-17, .cls-18, .cls-22, .cls-28, .cls-8 {
        fill: #f4f9fa;
      }

      .cls-8 {
        font-family: F37Ginger, F37 Ginger;
      }

      .cls-15, .cls-9 {
        letter-spacing: 0.05em;
      }

      .cls-10 {
        letter-spacing: 0em;
      }

      .cls-11 {
        letter-spacing: 0.03em;
      }

      .cls-12 {
        fill: #39beca;
      }

      .cls-14, .cls-15, .cls-16, .cls-26 {
        fill: #c3cbd5;
      }

      .cls-14, .cls-15, .cls-18, .cls-23, .cls-26, .cls-28 {
        font-family: F37Ginger-Light, F37 Ginger;
      }

      .cls-14 {
        letter-spacing: 0.04em;
      }

      .cls-18, .cls-26 {
        font-size: 8px;
      }

      .cls-18 {
        letter-spacing: 0.05em;
      }

      .cls-19 {
        letter-spacing: 0.04em;
      }

      .cls-20 {
        letter-spacing: 0.04em;
      }

      .cls-21 {
        letter-spacing: 0.05em;
      }

      .cls-22 {
        fill-rule: evenodd;
      }

      .cls-23, .cls-28 {
        font-size: 10px;
      }

      .cls-24 {
        letter-spacing: 0.05em;
      }

      .cls-25 {
        letter-spacing: 0.03em;
      }

      .cls-26 {
        letter-spacing: 0.07em;
      }

      .cls-27 {
        fill: #4bddad;
      }

      .cls-28 {
        letter-spacing: 0.07em;
      }

      .cls-29 {
        letter-spacing: 0.04em;
      }
    </style>
  </defs>
  <title>handphoneUI</title>
  <g id="handphone">
    <g id="hand-underlay">
      <path id="armthumb" class="cls-1" d="M479,276c11,65.88-9.14,138.48,13,202L313,852H511L630,548c35-15,90.25-50.44,106-74L571,376.58c-37-11.58-45-49.58-48-84.39-3.06-27.19-14.33-34.74-20.6-38.3-7.32-4.15-17.46-.89-21.68,2.68C479.8,257,479,270,479,276Z"/>
      <path id="thumbnail" class="cls-2" d="M478,257a198.65,198.65,0,0,0,3,33s5-2,5-6-3-27-3-27A4,4,0,0,0,478,257Z"/>
      <path id="indexfinger" class="cls-1" d="M729.5,245.5a22,22,0,0,1-15.56-37.56l50.5-50.5a22,22,0,0,1,31.11,31.11l-50.5,50.5A21.93,21.93,0,0,1,729.5,245.5Z"/>
      <path id="shadow" class="cls-3" d="M526.89,463.38C528,477,540,489,554.38,491.93a52.1,52.1,0,0,0,8.5,1.38c2.63.49,5.27.89,7.87,1.24,5.2.69,10.24,1.15,14.73,1.58q4.81.6,9.63,1c19.13,1.74,37.95.28,56.88-1l9.47-.63c2.44-.06,4.89-.08,7.35-.07s4.92,0,7.38,0C697,493,731,499,734,474c0-3-10-7-16.39-11.27a76.32,76.32,0,0,0-9.18-5l-10.76-6.34L569,375.38,559.89,370c-1.65-1.17-3.35-2.25-5.08-3.28C546,361,537,358,529,351c-1,14-4,28-4.17,41.8-.14,2.25-.25,4.52-.36,6.79-.31,6.81-.53,13.65-.61,20.5q-.05,4.11,0,8.23C524,437,523,446,525.94,454.8,526.57,460.23,526.89,463.38,526.89,463.38Z"/>
    </g>
    <g id="phone">
      <rect id="outline" class="cls-4" x="528.93" y="14.29" width="225.78" height="475.43" rx="31.82" ry="31.82"/>
      <circle id="home-btn" class="cls-5" cx="641.22" cy="462.77" r="18.47"/>
      <rect id="speaker" class="cls-5" x="622.69" y="38.16" width="36.81" height="3.68" rx="1.82" ry="1.82"/>
      <rect id="UI-holder" class="cls-6" x="540" y="84.6" width="200" height="334.93"/>
      <g id="hand-overlay">
        <path id="finger" class="cls-1" d="M751,298a22,22,0,0,1-15.56-37.56l29-29a22,22,0,0,1,31.11,31.11l-29,29A21.93,21.93,0,0,1,751,298Z"/>
        <path id="finger-2" data-name="finger" class="cls-1" d="M751,367a22,22,0,0,1-15.56-37.56l24-24a22,22,0,0,1,31.11,31.11l-24,24A21.93,21.93,0,0,1,751,367Z"/>
        <path id="finger-3" data-name="finger" class="cls-1" d="M751,434a22,22,0,0,1-15.56-37.56l19.5-19.5a22,22,0,0,1,31.11,31.11l-19.5,19.5A21.93,21.93,0,0,1,751,434Z"/>
        <path id="fingernail" class="cls-2" d="M763,278c5.22,7.13-7.16,16-16,16a16,16,0,0,1-16-16c0-8.84,8.24-20.23,16-16C751.05,264.21,758.17,271.39,763,278Z"/>
        <path id="fingernail-2" data-name="fingernail" class="cls-2" d="M764,348c5.22,7.13-7.16,16-16,16a16,16,0,0,1-16-16c0-8.84,8.24-20.23,16-16C752.05,334.21,759.17,341.39,764,348Z"/>
        <path id="fingernail-3" data-name="fingernail" class="cls-2" d="M764,414c5.22,7.13-7.16,16-16,16a16,16,0,0,1-16-16c0-8.84,8.24-20.23,16-16C752.05,400.21,759.17,407.39,764,414Z"/>
      </g>
    </g>
    <g id="talk">
      <g id="headerbar">
        <rect id="bar" class="cls-7" x="540" y="187" width="200" height="38"/>
        <text class="cls-8" transform="translate(593.26 208.94)"><tspan class="cls-9">Science</tspan><tspan class="cls-10" x="35.16" y="0"> </tspan><tspan class="cls-9" x="37.59" y="0">101, </tspan><tspan class="cls-11" x="57.21" y="0">L</tspan><tspan class="cls-9" x="62.5" y="0">ectu</tspan><tspan class="cls-11" x="82.45" y="0">r</tspan><tspan class="cls-9" x="86.12" y="0">e</tspan><tspan x="91.64" y="0"> </tspan><tspan class="cls-9" x="94.07" y="0">1</tspan></text>
        <g id="share-btn">
          <circle id="circle" class="cls-12" cx="721" cy="206" r="11"/>
          <g id="dots">
            <circle class="cls-13" cx="716.33" cy="206" r="1.33"/>
            <circle class="cls-13" cx="721" cy="206" r="1.33"/>
            <circle class="cls-13" cx="725.56" cy="206" r="1.33"/>
          </g>
        </g>
      </g>
      <text class="cls-14" transform="translate(611.17 241.99)">R<tspan class="cls-9" x="5.97" y="0">eco</tspan><tspan class="cls-11" x="22.49" y="0">r</tspan><tspan class="cls-9" x="25.92" y="0">ded on</tspan></text>
      <text class="cls-15" transform="translate(602.91 288.99)">(No description)</text>
      <g id="drop">
        <rect id="dropbg" class="cls-16" x="585" y="253" width="112" height="19"/>
        <polygon id="droparrow" class="cls-17" points="688 264.46 691 261.27 685 261.27 688 264.46"/>
        <path id="folder" class="cls-17" d="M601.58,259.12l-.21-.42a1,1,0,0,0-.93-.58h-2.3a1,1,0,0,0-.93.58l-.37.75a.62.62,0,0,1-.56.35h-2.82a1.46,1.46,0,0,0-1.46,1.46v4.17a1.46,1.46,0,0,0,1.46,1.46h7.08a1.46,1.46,0,0,0,1.46-1.46v-4.53A4,4,0,0,0,601.58,259.12Z"/>
        <text class="cls-18" transform="translate(604.28 265.25)">Pri<tspan class="cls-19" x="10.7" y="0">v</tspan><tspan x="15.05" y="0">a</tspan><tspan class="cls-20" x="20.54" y="0">t</tspan><tspan class="cls-21" x="23.27" y="0">e Collection</tspan></text>
      </g>
      <g id="player">
        <rect id="track" class="cls-7" x="560" y="377" width="161" height="2"/>
        <circle id="playhead" class="cls-7" cx="561" cy="378" r="6"/>
        <polygon id="playbtn" class="cls-7" points="650 397 635 388.34 635 405.66 650 397"/>
      </g>
    </g>
    <g>
      <rect id="description-edit-bg" class="cls-17" x="540" y="84.6" width="200" height="334.93"/>
      <g id="keyboard">
        <rect id="keyBG" class="cls-16" x="540" y="282.33" width="200" height="137.2"/>
        <path class="cls-22" d="M549.82,295.23h10.67a2.37,2.37,0,0,1,2.37,2.37v17.78a2.37,2.37,0,0,1-2.37,2.37H549.82a2.37,2.37,0,0,1-2.37-2.37V297.6A2.37,2.37,0,0,1,549.82,295.23Z"/>
        <path class="cls-22" d="M568.78,295.23h10.67a2.37,2.37,0,0,1,2.37,2.37v17.78a2.37,2.37,0,0,1-2.37,2.37H568.78a2.37,2.37,0,0,1-2.37-2.37V297.6A2.37,2.37,0,0,1,568.78,295.23Z"/>
        <path class="cls-22" d="M587.75,295.23h10.67a2.37,2.37,0,0,1,2.37,2.37v17.78a2.37,2.37,0,0,1-2.37,2.37H587.75a2.37,2.37,0,0,1-2.37-2.37V297.6A2.37,2.37,0,0,1,587.75,295.23Z"/>
        <path class="cls-22" d="M606.72,295.23h10.67a2.37,2.37,0,0,1,2.37,2.37v17.78a2.37,2.37,0,0,1-2.37,2.37H606.72a2.37,2.37,0,0,1-2.37-2.37V297.6A2.37,2.37,0,0,1,606.72,295.23Z"/>
        <path class="cls-22" d="M625.68,295.23h10.67a2.37,2.37,0,0,1,2.37,2.37v17.78a2.37,2.37,0,0,1-2.37,2.37H625.68a2.37,2.37,0,0,1-2.37-2.37V297.6A2.37,2.37,0,0,1,625.68,295.23Z"/>
        <path class="cls-22" d="M644.65,295.23h10.67a2.37,2.37,0,0,1,2.37,2.37v17.78a2.37,2.37,0,0,1-2.37,2.37H644.65a2.37,2.37,0,0,1-2.37-2.37V297.6A2.37,2.37,0,0,1,644.65,295.23Z"/>
        <path class="cls-22" d="M663.62,295.23h10.67a2.37,2.37,0,0,1,2.37,2.37v17.78a2.37,2.37,0,0,1-2.37,2.37H663.62a2.37,2.37,0,0,1-2.37-2.37V297.6A2.37,2.37,0,0,1,663.62,295.23Z"/>
        <path class="cls-22" d="M682.58,295.23h10.67a2.37,2.37,0,0,1,2.37,2.37v17.78a2.37,2.37,0,0,1-2.37,2.37H682.58a2.37,2.37,0,0,1-2.37-2.37V297.6A2.37,2.37,0,0,1,682.58,295.23Z"/>
        <path class="cls-22" d="M701.55,295.23h10.67a2.37,2.37,0,0,1,2.37,2.37v17.78a2.37,2.37,0,0,1-2.37,2.37H701.55a2.37,2.37,0,0,1-2.37-2.37V297.6A2.37,2.37,0,0,1,701.55,295.23Z"/>
        <path class="cls-22" d="M720.51,295.23h10.67a2.37,2.37,0,0,1,2.37,2.37v17.78a2.37,2.37,0,0,1-2.37,2.37H720.51a2.37,2.37,0,0,1-2.37-2.37V297.6A2.37,2.37,0,0,1,720.51,295.23Z"/>
        <path id="a" class="cls-22" d="M557.52,327.24h10.67a2.37,2.37,0,0,1,2.37,2.37v17.78a2.37,2.37,0,0,1-2.37,2.37H557.52a2.37,2.37,0,0,1-2.37-2.37V329.61A2.37,2.37,0,0,1,557.52,327.24Z"/>
        <path id="s" class="cls-22" d="M576.49,327.24h10.67a2.37,2.37,0,0,1,2.37,2.37v17.78a2.37,2.37,0,0,1-2.37,2.37H576.49a2.37,2.37,0,0,1-2.37-2.37V329.61A2.37,2.37,0,0,1,576.49,327.24Z"/>
        <path id="d" class="cls-22" d="M595.45,327.24h10.67a2.37,2.37,0,0,1,2.37,2.37v17.78a2.37,2.37,0,0,1-2.37,2.37H595.45a2.37,2.37,0,0,1-2.37-2.37V329.61A2.37,2.37,0,0,1,595.45,327.24Z"/>
        <path id="f" class="cls-22" d="M614.42,327.24h10.67a2.37,2.37,0,0,1,2.37,2.37v17.78a2.37,2.37,0,0,1-2.37,2.37H614.42a2.37,2.37,0,0,1-2.37-2.37V329.61A2.37,2.37,0,0,1,614.42,327.24Z"/>
        <path id="g" class="cls-22" d="M633.39,327.24h10.67a2.37,2.37,0,0,1,2.37,2.37v17.78a2.37,2.37,0,0,1-2.37,2.37H633.39a2.37,2.37,0,0,1-2.37-2.37V329.61A2.37,2.37,0,0,1,633.39,327.24Z"/>
        <path id="h" class="cls-22" d="M652.35,327.24H663a2.37,2.37,0,0,1,2.37,2.37v17.78a2.37,2.37,0,0,1-2.37,2.37H652.35a2.37,2.37,0,0,1-2.37-2.37V329.61A2.37,2.37,0,0,1,652.35,327.24Z"/>
        <path id="j" class="cls-22" d="M671.32,327.24H682a2.37,2.37,0,0,1,2.37,2.37v17.78a2.37,2.37,0,0,1-2.37,2.37H671.32a2.37,2.37,0,0,1-2.37-2.37V329.61A2.37,2.37,0,0,1,671.32,327.24Z"/>
        <path id="k" class="cls-22" d="M690.29,327.24H701a2.37,2.37,0,0,1,2.37,2.37v17.78a2.37,2.37,0,0,1-2.37,2.37H690.29a2.37,2.37,0,0,1-2.37-2.37V329.61A2.37,2.37,0,0,1,690.29,327.24Z"/>
        <path id="l" class="cls-22" d="M709.25,327.24h10.67a2.37,2.37,0,0,1,2.37,2.37v17.78a2.37,2.37,0,0,1-2.37,2.37H709.25a2.37,2.37,0,0,1-2.37-2.37V329.61A2.37,2.37,0,0,1,709.25,327.24Z"/>
        <path id="shift" class="cls-22" d="M549.82,359.39h16.6a2.37,2.37,0,0,1,2.37,2.37v17.78a2.37,2.37,0,0,1-2.37,2.37h-16.6a2.37,2.37,0,0,1-2.37-2.37V361.76A2.37,2.37,0,0,1,549.82,359.39Z"/>
        <path id="z" class="cls-22" d="M578.27,359.39h10.67a2.37,2.37,0,0,1,2.37,2.37v17.78a2.37,2.37,0,0,1-2.37,2.37H578.27a2.37,2.37,0,0,1-2.37-2.37V361.76A2.37,2.37,0,0,1,578.27,359.39Z"/>
        <path id="x" class="cls-22" d="M597.23,359.39H607.9a2.37,2.37,0,0,1,2.37,2.37v17.78a2.37,2.37,0,0,1-2.37,2.37H597.23a2.37,2.37,0,0,1-2.37-2.37V361.76A2.37,2.37,0,0,1,597.23,359.39Z"/>
        <path id="c" class="cls-22" d="M616.2,359.39h10.67a2.37,2.37,0,0,1,2.37,2.37v17.78a2.37,2.37,0,0,1-2.37,2.37H616.2a2.37,2.37,0,0,1-2.37-2.37V361.76A2.37,2.37,0,0,1,616.2,359.39Z"/>
        <path id="v" class="cls-22" d="M635.17,359.39h10.67a2.37,2.37,0,0,1,2.37,2.37v17.78a2.37,2.37,0,0,1-2.37,2.37H635.17a2.37,2.37,0,0,1-2.37-2.37V361.76A2.37,2.37,0,0,1,635.17,359.39Z"/>
        <path id="b" class="cls-22" d="M654.13,359.39H664.8a2.37,2.37,0,0,1,2.37,2.37v17.78a2.37,2.37,0,0,1-2.37,2.37H654.13a2.37,2.37,0,0,1-2.37-2.37V361.76A2.37,2.37,0,0,1,654.13,359.39Z"/>
        <path id="n" class="cls-22" d="M673.1,359.39h10.67a2.37,2.37,0,0,1,2.37,2.37v17.78a2.37,2.37,0,0,1-2.37,2.37H673.1a2.37,2.37,0,0,1-2.37-2.37V361.76A2.37,2.37,0,0,1,673.1,359.39Z"/>
        <path id="m" class="cls-22" d="M692.07,359.39h10.67a2.37,2.37,0,0,1,2.37,2.37v17.78a2.37,2.37,0,0,1-2.37,2.37H692.07a2.37,2.37,0,0,1-2.37-2.37V361.76A2.37,2.37,0,0,1,692.07,359.39Z"/>
        <path id="del" class="cls-22" d="M714.59,359.39h16.6a2.37,2.37,0,0,1,2.37,2.37v17.78a2.37,2.37,0,0,1-2.37,2.37h-16.6a2.37,2.37,0,0,1-2.37-2.37V361.76A2.37,2.37,0,0,1,714.59,359.39Z"/>
        <path id="bot" class="cls-22" d="M549.82,391.25h15.41a2.37,2.37,0,0,1,2.37,2.37V411.4a2.37,2.37,0,0,1-2.37,2.37H549.82a2.37,2.37,0,0,1-2.37-2.37V393.62A2.37,2.37,0,0,1,549.82,391.25Z"/>
        <path id="bot-2" data-name="bot" class="cls-22" d="M573.52,391.25h15.41a2.37,2.37,0,0,1,2.37,2.37V411.4a2.37,2.37,0,0,1-2.37,2.37H573.52a2.37,2.37,0,0,1-2.37-2.37V393.62A2.37,2.37,0,0,1,573.52,391.25Z"/>
        <path id="bot-3" data-name="bot" class="cls-22" d="M597.23,391.25H607.9a2.37,2.37,0,0,1,2.37,2.37V411.4a2.37,2.37,0,0,1-2.37,2.37H597.23a2.37,2.37,0,0,1-2.37-2.37V393.62A2.37,2.37,0,0,1,597.23,391.25Z"/>
        <path id="bot-4" data-name="bot" class="cls-22" d="M616.2,391.25h67.57a2.37,2.37,0,0,1,2.37,2.37V411.4a2.37,2.37,0,0,1-2.37,2.37H616.2a2.37,2.37,0,0,1-2.37-2.37V393.62A2.37,2.37,0,0,1,616.2,391.25Z"/>
        <path id="bot-5" data-name="bot" class="cls-22" d="M692.07,391.25h39.12a2.37,2.37,0,0,1,2.37,2.37V411.4a2.37,2.37,0,0,1-2.37,2.37H692.07a2.37,2.37,0,0,1-2.37-2.37V393.62A2.37,2.37,0,0,1,692.07,391.25Z"/>
      </g>
      <text class="cls-23" transform="translate(553.09 123.6)"><tspan class="cls-24">Discussed Carl</tspan><tspan class="cls-25" x="74.74" y="0"> </tspan><tspan class="cls-24" x="77.74" y="0">Sagan</tspan><tspan x="110.39" y="0">.</tspan></text>
      <text class="cls-26" transform="translate(553.09 105.02)">DESCRIPTION</text>
      <rect id="cursor" class="cls-7" x="667.17" y="110.64" width="0.78" height="19.55"/>
      <g id="ok-btn">
        <rect id="btnbg" class="cls-27" x="689.69" y="244.33" width="40.31" height="28"/>
        <text class="cls-28" transform="translate(702.95 261.75)">O<tspan class="cls-29" x="9.1" y="0">K</tspan></text>
      </g>
    </g>
  </g>
</svg>
