<svg xmlns="http://www.w3.org/2000/svg" viewBox="0 0 114.78 275.32">
  <defs>
    <style>
      .cls-1 {
        fill: #4bddad;
      }

      .cls-2, .cls-3 {
        fill: none;
        stroke-miterlimit: 10;
      }

      .cls-2 {
        stroke: #4bddad;
        stroke-linecap: round;
        stroke-width: 10px;
      }

      .cls-3 {
        stroke: #fff;
        stroke-width: 3px;
      }

      .cls-4 {
        fill: #fff;
      }
    </style>
  </defs>
  <title>photon_1</title>
  <g id="people">
    <g id="boy">
      <path class="cls-1" d="M6.8,53.45a5.19,5.19,0,0,0-1.15-3.16c-2.93-4.19-7.1-6.34-12.1-7.05l.08-.29,5.94,1c-3.9-2.31-8-2-12.17-.78l0-.22,3.3-1.29a32.67,32.67,0,0,0-15.14,5.18l1.82-2.42-.16-.15c-.36.26-.73.5-1.08.77a9,9,0,0,0-3.83,6.74,1.15,1.15,0,0,1-.45.69,5.92,5.92,0,0,0-2.43,4l.92-1.39c-.91,3.39.44,9.41,1.49,12.16a.18.18,0,0,0,0,.21,5.07,5.07,0,0,1,.17,1.33,6.09,6.09,0,0,1-.13,1c1-.47,1.16,0,1.32.71a4.58,4.58,0,0,0,1.16,2.35,1.89,1.89,0,0,0,.22-.49c.11-1.32.19-2.65.29-4a1.07,1.07,0,0,1,.53.68,10,10,0,0,1,.12,1.13,3.17,3.17,0,0,0,3,3.08,9.09,9.09,0,0,0,1.81.08c2.47-.13,4.54-.91,5.49-3.48.22-.61.47-1.33,1.26-1.34s1.1.77,1.35,1.43a4.67,4.67,0,0,0,3,2.94,9.15,9.15,0,0,0,5,.25A2.3,2.3,0,0,0-2,71.74c.31-.86.44-1.79.67-2.69a4,4,0,0,1,.35-.72l.26.08c0,1.48-.23,3,.54,4.42A19.1,19.1,0,0,0,1,70.17c.21-.61.5-.75,1-.39a5.84,5.84,0,0,1,.52.48c.26-1.08.55-2.09.75-3.12s.34-2.14.47-3.21.2-2,.3-3.07h.18l.34,1.49a9.06,9.06,0,0,0,1-4l.3,5.28.26,0a21.13,21.13,0,0,0-.66-11.58ZM-15,69c-.86,2.64-2,3.45-5.1,3.48-2.6,0-3.35-.61-3.62-3.06-.21-1.92.46-2.88,2.37-3.29a9,9,0,0,1,5.2.42C-14.78,67.09-14.52,67.67-15,69Zm12.69-.15c-.19,3.28-1.07,3.62-3.67,3.68-.65-.08-1.3-.13-1.94-.25a3.87,3.87,0,0,1-3-2.87c-.64-1.86-.33-2.45,1.56-3a8.51,8.51,0,0,1,5.41,0,2.15,2.15,0,0,1,1.64,2.33C-2.28,68.77-2.27,68.82-2.28,68.87Zm1.58-3c-1.64-.25-3.15-.57-4.69-.71a10.36,10.36,0,0,0-5.17.79,6.19,6.19,0,0,1-5,0,11.27,11.27,0,0,0-7.33-.39,4.37,4.37,0,0,1-.66.15c-.72.07-1.28.07-1.74,1a.77.77,0,0,1-.31.31c.1-1.49-.25-4.91.2-4.36.08-.66.15-1.18.21-1.69a3.48,3.48,0,0,1,1.65-2.6c1.3-.81,2.67-1.51,4-2.25A4.14,4.14,0,0,1-16.64,56a22.45,22.45,0,0,0,8.49-.19A2.5,2.5,0,0,1-6.63,56c1.48.75,2.94,1.54,4.34,2.42A3.7,3.7,0,0,1-.7,61.72C-.67,63.08-.69,64.43-.69,65.9Z"/>
      <path class="cls-1" d="M-49.13,136.4c-.46,0,5.76-31.34,5.86-31.73a9.13,9.13,0,0,1,3.05-4.75,13.56,13.56,0,0,1,8.07-3.2c1.2-.1,2.41,0,3.62,0,1,0,2-.14,3-.17a.85.85,0,0,1,.65.25c2.6,4.19,6.54,6.68,10.89,8.68a2.15,2.15,0,0,0,2,0,26,26,0,0,0,9.32-6.56,9.23,9.23,0,0,0,1.2-1.64A1.2,1.2,0,0,1,0,96.52a21.63,21.63,0,0,0,3.54.1A16.29,16.29,0,0,1,11.35,98c2.84,1.37,5.06,3.37,5.93,6.57.09.32,3.46,31.79,2.66,31.79Z"/>
    </g>
    <g id="girl">
      <path class="cls-1" d="M75.48,240.26c-1.21-.58-2.45-1.1-3.63-1.72-.64-.33-1.25-.78-1.27-1.53,1.49.72,3,1.38,4.46,2.17A11.93,11.93,0,0,1,81.27,248a20.83,20.83,0,0,0-.55-4.17,11.19,11.19,0,0,0-6-7,23.75,23.75,0,0,1-2.53-1.8c4.89-3.38,5.7-7.61,3.29-12.83a9.15,9.15,0,0,1,2.69,6c.6-3.8-1.23-7.24-4.93-9.18-.8-.42-1-.91-.68-1.68A27.1,27.1,0,0,1,74,214.13a10.45,10.45,0,0,0-1.67-12.87c-1.15-1.17-2.31-2.34-3.5-3.48a2,2,0,0,1-.64-1.69,10.84,10.84,0,0,0-2.11-7.4c-3.08-4.16-7.46-6.14-12.41-6.93a50.72,50.72,0,0,0-5.75-.29c1.69-1.39,3.78-.9,5.75-1.07-2.89-1.18-5.75-1.56-8.51.19-1.64-1.53-2.23-1.84-3.38-1.74.34.31.68.58,1,.9s.53.68.9,1.16c-6.66-2.07-10.16-1.07-11.39.75,3.45-.69,4-.71,5.41-.23,0,0,0,.05-.05.06l-.49.08a20.82,20.82,0,0,0-10.84,4.18,12,12,0,0,0-5,10.76,1.56,1.56,0,0,1-.43,1c-1.09,1.14-2.22,2.24-3.34,3.35-3.71,3.66-4.7,8.78-1.91,13.42A26.91,26.91,0,0,1,17,217.52c.3.7,0,1.1-.62,1.42a9.12,9.12,0,0,0-4,3.61,7.52,7.52,0,0,0-1,6A8.21,8.21,0,0,1,14,222.28c-2.46,4.74-1.6,8.33,3.13,12.58a6.1,6.1,0,0,1-2.87,2.25,10.82,10.82,0,0,0-5.45,6.56,32.09,32.09,0,0,0-.69,3.9l.3.07a11.27,11.27,0,0,1,5.46-8.16c1.62-.95,3.37-1.67,5.05-2.5a2.62,2.62,0,0,1-.89,1.26,22.7,22.7,0,0,1-2.95,1.5c-4.26,1.82-6.61,5.57-6.13,9.94a7.22,7.22,0,0,0,3.28,5.47A8.55,8.55,0,0,1,16,249.61c.08.26.13.41.17.57.69,2.65,1.39,5.31,2.07,8a44.91,44.91,0,0,0,1.15,16.54c2.87,10.81,13.52,24,13.94,24,4.06,0,4,0,8.92,0l13.94-.56s8.91-10.76,12.26-21.74c2.87-9.39,3-18.59,3.33-19.72.68-2.37,1.25-4.78,1.88-7.23,2.13,1.15,3.31,3.1,4.08,5.66a22.75,22.75,0,0,0,1.83-2.36C82,248.48,80,242.46,75.48,240.26ZM60,253.42c-1.7,2-15.71,14-15.55,14-1.94-1.92-13.24-12.07-15-14A26.39,26.39,0,0,1,25,246.85c1.11-.22,2.06-.4,3-.6a13,13,0,0,0,6.24-2.85c3-2.71,3.45-6.22,3.12-10a1,1,0,0,0-.36-.56c-4.19-3.63-6.73-8.31-8.42-13.49-.48-1.48-.87-2.93-2.33-3.79a2.26,2.26,0,0,1-.64-.77c-.64-1-1.2-2.09-.7-3.3a1.83,1.83,0,0,1,1.07-.87c.17-.05.63.46.8.8a6.46,6.46,0,0,0,2.42,3c-.1-.58-.15-.94-.23-1.29a15.47,15.47,0,0,1,.12-7.76A3.69,3.69,0,0,1,31,203.05c4.12-2.32,8.16-4.79,12.23-7.2.26-.16.54-.29.81-.43-3,5.13-7.77,8-13.13,10a22.93,22.93,0,0,0,4.43-.83,25,25,0,0,0,12.44-9.32,1.21,1.21,0,0,1,1.41-.52,11.65,11.65,0,0,1,6.42,3.29c4.23,4,6.18,8.76,4.93,14.6-.11.52-.15,1.06-.22,1.59l.38.17c.63-1,1.29-1.89,1.88-2.87.27-.45.39-1.18,1.07-.9a2.24,2.24,0,0,1,1,1.2,2.52,2.52,0,0,1-.05,1.38,5.93,5.93,0,0,1-2.22,3.14,3.2,3.2,0,0,0-1,1.41c-1.76,5.77-4.33,11.05-9,15.1a1,1,0,0,0-.36.56c-.18,2.74-.11,5.46,1.42,7.89,2,3.18,5.09,4.48,8.66,5,.78.1,1.56.29,2.72.52C63.17,249.19,61.73,251.43,60,253.42Z"/>
      <path class="cls-1" d="M38.65,226.3c.86-.56,1.66-1,2.41-1.57,1.08-.78,2.13-1.58,3.56-.78a.45.45,0,0,0,.36,0c1.26-.67,2.24-.05,3.22.65s1.7,1.14,2.66,1.78c-1.28,1-2.6,2.06-4,3a3.91,3.91,0,0,1-4.62-.25C41,228.19,39.79,227.19,38.65,226.3Z"/>
    </g>
    <line id="mid-row" class="cls-2" x1="-425.18" y1="136.66" x2="44.82" y2="136.66"/>
    <g id="photon">
      <ellipse class="cls-3" cx="54.54" cy="137.66" rx="53.04" ry="136.16"/>
      <circle class="cls-4" cx="98.36" cy="60.88" r="16.43"/>
    </g>
  </g>
</svg>
