<svg xmlns="http://www.w3.org/2000/svg" viewBox="0 0 1280 840">
  <defs>
    <style>
      .cls-1 {
        fill: #353f50;
      }

      .cls-2 {
        fill: #39beca;
      }

      .cls-3 {
        fill: #f0bc8c;
      }

      .cls-4 {
        fill: #a88a73;
      }

      .cls-5 {
        fill: none;
        stroke: #a88a73;
        stroke-linecap: round;
        stroke-miterlimit: 10;
        stroke-width: 7px;
      }

      .cls-6 {
        fill: #c3cbd5;
        fill-rule: evenodd;
      }
    </style>
  </defs>
  <title>studentscene</title>
  <g id="student-scene">
    <path id="shadow" class="cls-1" d="M955.18,652.21a291.89,291.89,0,0,0,34.24-137c0-2.5,0-5-.11-7.49.43,8.14.31,13,.31,13s22.2-65.53,27.07-130.6q.57-7.5.83-15c1-30.73,17.56-64.53,5.09-92.38a51.46,51.46,0,0,0-11.32-15.93c-18.88-16.07-37.55-40.53-58.18-61.31-5.16-5.2-10.42-10.16-15.77-14.76A101.39,101.39,0,0,0,919.06,176a132.23,132.23,0,0,0-21.54-10.89c-11.64-5.47-24.06-4.35-35.23-8.82-52.15-25.67-101.82-54.68-161.52-57.77Q690,97.54,679,97.25q-9.1-.23-18.32.1t-18.54,1.17c-48.1,9.83-97.77-.21-147.43,2-26.08,1.12-52.15,7.81-77.54,14.74a152,152,0,0,0-21.79,9,135.35,135.35,0,0,0-20.23,12.69c-27,22.74-59.24,33.9-90.29,52.87-14.9,10-24.83,23.44-26.08,40.17-1.24,27.9,2.48,55.8-6.54,82.24a151.73,151.73,0,0,0-4.67,21.14,136.73,136.73,0,0,0-.45,17.07c.48,23.51,3,46.95,4.82,70.55.83,6.46,1.93,13.07,3.34,19.74,4.31,20.45,11.55,41.47,23,60.32-.23,4.7-.37,9.41-.37,14.16a292.06,292.06,0,0,0,35.3,139C238.71,665.88,182,724.34,182,794.72V1020h926V794.72C1108,717.72,1040.1,655,955.18,652.21Z"/>
    <g id="student-2" data-name="student">
      <path id="shirt" class="cls-2" d="M363.95,829V677.93a95.64,95.64,0,0,1,95.64-95.64H826.4A95.64,95.64,0,0,1,922,677.93V829Z"/>
      <circle class="cls-3" cx="636.2" cy="490.5" r="214.38"/>
      <path class="cls-4" d="M403.23,380c.29,15.77,1.79,31.48,2.9,47.31.5,4.33,1.16,8.76,2,13.24,4.24,22.38,13.17,45.8,30.3,62.22,13.52-58.58-11.68-85.41,29.86-111.39q4.59-1.27,9.06-2.38c44.4-17.17,88.55-17.92,135.7-6.69,7.48,1.5,14.22-3.74,20.22-8.51,2.83-2.33,5.54-4.87,8.26-7.42,5.44-5.11,10.93-10.26,17.17-14,6-3,11.23-3,17.21,0,20.21,12,42.66,44.9,65.9,19.66a65.35,65.35,0,0,0,5.89-6.16c7.53-8.27,11.27-21,9.78-32.21,5.24,10.48,10.48,20.21,19.5,28.27a129.42,129.42,0,0,0,12.64,11,117.92,117.92,0,0,0,14.25,9.33,75.05,75.05,0,0,1,23.39,22.65,102.34,102.34,0,0,1,8.08,14.1c16.27,34.19,15.34,75.16,15.34,75.16s13.38-43.94,16.32-87.58q.34-5,.5-10.08c.61-20.61,10.58-43.27,3.06-61.95a34.74,34.74,0,0,0-6.82-10.68c-11.38-10.77-22.63-27.18-35.06-41.11-3.11-3.48-6.28-6.82-9.51-9.9a62.8,62.8,0,0,0-11-9.85,76.93,76.93,0,0,0-13-7.3c-7-3.67-14.5-2.92-21.24-5.91-31.43-17.21-61.36-36.67-97.34-38.74q-6.51-.69-13.09-.88-5.49-.15-11,.07t-11.18.79c-29,6.59-58.92-.14-88.86,1.35-15.72.75-31.43,5.24-46.73,9.88a86.64,86.64,0,0,0-13.14,6,80.84,80.84,0,0,0-12.19,8.51c-16.25,15.25-35.71,22.73-54.41,35.46-9,6.74-15,15.72-15.72,26.94-.75,18.71,1.5,37.42-3.94,55.15a111.65,111.65,0,0,0-2.81,14.18A101.93,101.93,0,0,0,403.23,380Z"/>
      <path class="cls-4" d="M595.68,649c7.57,2,10.57,11,19.67,17.44q.85.5,1.74,1a59.63,59.63,0,0,0,28.76,7.49,58.2,58.2,0,0,0,25.41-5.85q1.32-.63,2.57-1.31C678.35,663,684.36,654,693.37,648c-9-3-15,3-20.75,5.51q-1.64.38-3.23.83c-13.8,3.89-25.1,11.37-38.27,7.28q-1.13-.11-2.26-.26a73.43,73.43,0,0,1-8.43-1.68l-2-.55C612.26,657,595.68,649,595.68,649Z"/>
      <path class="cls-5" d="M630.55,615a27.12,27.12,0,0,1,10.52-2.47c5.49,0,11.89,2.47,11.89,2.47"/>
      <line class="cls-5" x1="522.18" y1="532.77" x2="547.22" y2="520.75"/>
      <line class="cls-5" x1="735.43" y1="516.75" x2="755.46" y2="536.78"/>
      <g id="eyes">
        <circle class="cls-1" cx="569.1" cy="574.72" r="18.64"/>
        <circle class="cls-1" cx="710.9" cy="577.03" r="18.64"/>
      </g>
      <path class="cls-1" d="M878.65,455a204.9,204.9,0,0,0-3.88-37.89c-6.94-35.43-22.66-67.27-45.46-92.06-41.93-45.6-106.9-68.71-193.12-68.71-86,0-149.17,23-187.82,68.41-21.28,25-34.79,57.1-39.07,92.88a204.06,204.06,0,0,0-1.16,35.45c-1,.23-2,.48-3.12.78-39.43,10.91-61,57.24-48.24,103.49s55.13,74.89,94.56,64,11.81-48.36-1-94.6c-8.87-32.06-8.28-59.92-20.23-70.37-1.49-17-3-73.17,34.77-117.54,34.34-40.33,92-60.77,171.29-60.77,79.75,0,139.29,20.69,176.95,61.49,25.29,27.4,35.8,59.15,40.17,81a186,186,0,0,1,3.6,32.18c-19.44,5-16.94,36.71-27.27,74.07-12.79,46.25-40.42,83.7-1,94.6s81.77-17.74,94.56-64C935.61,512.59,915.74,467.72,878.65,455Z"/>
    </g>
    <path id="computer" class="cls-6" d="M1046.91,673.56H233.09A24.11,24.11,0,0,0,209,697.67v143.1h862V697.67A24.11,24.11,0,0,0,1046.91,673.56Z"/>
  </g>
</svg>
