<?xml version="1.0" standalone="no"?>
<!DOCTYPE svg PUBLIC "-//W3C//DTD SVG 1.1//EN" "http://www.w3.org/Graphics/SVG/1.1/DTD/svg11.dtd" >
<svg xmlns="http://www.w3.org/2000/svg" xmlns:xlink="http://www.w3.org/1999/xlink" version="1.1">
<metadata>
Created by FontForge 20161013 at Thu Sep  8 14:24:59 2016
 By ,,,
Copyright 2013 (c) Rick Banks / Face37. All rights reserved.
</metadata>
<defs>
<font id="F37Ginger-Light" horiz-adv-x="636" >
  <font-face 
    font-family="F37 Ginger Light"
    font-weight="300"
    font-stretch="normal"
    units-per-em="1000"
    panose-1="2 0 5 3 3 0 0 2 0 4"
    ascent="800"
    descent="-200"
    x-height="475"
    cap-height="740"
    bbox="-153 -262 1259 982"
    underline-thickness="50"
    underline-position="-200"
    unicode-range="U+0020-FB02"
  />
<missing-glyph horiz-adv-x="729" 
d="M629 0h-529v740h529v-740zM561 73v594h-392v-594h392z" />
    <glyph glyph-name="fi" unicode="fi" horiz-adv-x="540" 
d="M455 0h-70v412h-230v-412h-70v412h-70v63h70v109q0 156 146 156q34 0 64 -10v-63q-30 9 -56 9q-84 0 -84 -95v-106h300v-475zM420 585q-20 0 -33 13.5t-13 32.5t13 32.5t33 13.5t33 -13.5t13 -32.5t-13 -32.5t-33 -13.5z" />
    <glyph glyph-name="fl" unicode="fl" horiz-adv-x="558" 
d="M549 53v-59q-25 -7 -51 -7q-52 0 -82.5 33t-30.5 95v297h-230v-412h-70v412h-70v63h70v109q0 156 146 156q34 0 64 -10v-63q-30 9 -56 9q-84 0 -84 -95v-106h230v265h70v-592q0 -54 14 -75.5t52 -21.5q17 0 28 2z" />
    <glyph glyph-name=".notdef" horiz-adv-x="729" 
d="M629 0h-529v740h529v-740zM561 73v594h-392v-594h392z" />
    <glyph glyph-name=".null" horiz-adv-x="0" 
 />
    <glyph glyph-name="nonmarkingreturn" horiz-adv-x="333" 
 />
    <glyph glyph-name="space" unicode=" " horiz-adv-x="270" 
 />
    <glyph glyph-name="exclam" unicode="!" horiz-adv-x="292" 
d="M160 173h-24l-25 295v272h74v-272zM146 -5q-20 0 -33 13.5t-13 32.5t13 32.5t33 13.5t33 -13.5t13 -32.5t-13 -32.5t-33 -13.5z" />
    <glyph glyph-name="quotedbl" unicode="&#x22;" horiz-adv-x="397" 
d="M150 484h-60l-10 256h81zM306 484h-60l-10 256h81z" />
    <glyph glyph-name="numbersign" unicode="#" horiz-adv-x="593" 
d="M403 66h-69l26 180h-154l-26 -180h-68l25 180h-112v67h122l21 153h-122v68h132l26 183h69l-26 -183h154l26 183h69l-26 -183h98v-67h-108l-22 -154h107v-67h-116zM370 313l21 154h-153l-22 -154h154z" />
    <glyph glyph-name="dollar" unicode="$" horiz-adv-x="549" 
d="M322 -80h-69v68q-66 4 -125 39t-88 80l47 57q73 -102 166 -110v299q-40 16 -65.5 29.5t-53.5 36.5t-42 56.5t-14 76.5q0 76 44 130.5t131 66.5v72h69v-69q94 -6 162 -69l-46 -53q-56 47 -116 54v-277q41 -16 66 -29t54 -35.5t43 -55.5t14 -77q0 -84 -50.5 -142.5
t-126.5 -74.5v-73zM322 325v-262q46 15 74.5 52.5t28.5 84.5q0 46 -27 74.5t-76 50.5zM253 435v246q-49 -10 -75 -42.5t-26 -77.5q0 -46 26 -75t75 -51z" />
    <glyph glyph-name="percent" unicode="%" horiz-adv-x="899" 
d="M849 173q0 -77 -56 -132t-133 -55t-133 55t-56 132t56 132t133 55t133 -55t56 -132zM660 40q54 0 92 39t38 94t-37.5 93.5t-92.5 38.5t-92.5 -38.5t-37.5 -93.5t38 -94t92 -39zM280 0h-67l406 740h67zM428 567q0 -77 -56 -132t-133 -55t-133 55t-56 132t56 132t133 55
t133 -55t56 -132zM239 435q55 0 92.5 38.5t37.5 93.5t-38 94t-92 39t-92 -39t-38 -94t37.5 -93.5t92.5 -38.5z" />
    <glyph glyph-name="ampersand" unicode="&#x26;" horiz-adv-x="637" 
d="M587 0h-307q-94 0 -159.5 63.5t-65.5 159.5q0 121 106 173q-42 23 -65 66.5t-23 94.5q0 85 59 140.5t143 55.5q70 0 126 -43l-37 -54q-38 32 -88 32q-53 0 -91 -36t-38 -95q0 -57 35.5 -92.5t88.5 -35.5h146v129h74v-129h96v-67h-96v-296h96v-66zM417 66v296h-125
q-70 0 -116 -34.5t-46 -103.5q0 -70 46.5 -114t121.5 -44h119z" />
    <glyph glyph-name="quotesingle" unicode="'" horiz-adv-x="241" 
d="M150 484h-60l-10 256h81z" />
    <glyph glyph-name="parenleft" unicode="(" horiz-adv-x="362" 
d="M352 -139l-38 -62q-50 29 -94 71t-84 100.5t-63 137.5t-23 168t23 168t63 137t84 100t94 71l38 -62q-95 -52 -161.5 -161t-66.5 -253q0 -145 66.5 -253.5t161.5 -161.5z" />
    <glyph glyph-name="parenright" unicode=")" horiz-adv-x="362" 
d="M48 -201l-38 62q95 53 161.5 161.5t66.5 253.5q0 144 -66.5 253t-161.5 161l38 62q50 -29 94 -71t84 -100t63 -137t23 -168t-23 -168t-63 -137.5t-84 -100.5t-94 -71z" />
    <glyph glyph-name="asterisk" unicode="*" horiz-adv-x="378" 
d="M338 520l-30 -48l-91 63v-110h-56v110l-92 -63l-29 48l96 65l-89 61l27 48l87 -57v103h56v-103l88 57l29 -48l-92 -61z" />
    <glyph glyph-name="plus" unicode="+" horiz-adv-x="604" 
d="M336 93h-68v219h-218v68h218v219h68v-219h218v-68h-218v-219z" />
    <glyph glyph-name="comma" unicode="," horiz-adv-x="292" 
d="M110 -92v38q15 2 28 16t14 34q-2 -1 -8 -1q-18 0 -31 13.5t-13 32.5q0 20 13.5 33t33.5 13q23 0 35.5 -17.5t12.5 -45.5q0 -43 -23.5 -79t-61.5 -37z" />
    <glyph glyph-name="hyphen" unicode="-" horiz-adv-x="392" 
d="M332 224h-272v67h272v-67z" />
    <glyph glyph-name="period" unicode="." horiz-adv-x="292" 
d="M146 -5q-20 0 -33 13.5t-13 32.5t13 32.5t33 13.5t33 -13.5t13 -32.5t-13 -32.5t-33 -13.5z" />
    <glyph glyph-name="slash" unicode="/" horiz-adv-x="473" 
d="M67 0h-67l406 740h67z" />
    <glyph glyph-name="zero" unicode="0" horiz-adv-x="586" 
d="M531 486v-216q0 -122 -59 -202.5t-179 -80.5q-118 0 -178 79t-60 204v216q0 113 62 190t176 77q111 0 174.5 -75.5t63.5 -191.5zM457 281v188q0 58 -13.5 104t-52 79.5t-98.5 33.5q-86 0 -125 -61.5t-39 -155.5v-188q0 -47 6.5 -83.5t23.5 -71t51 -53.5t83 -19
q164 0 164 227z" />
    <glyph glyph-name="one" unicode="1" horiz-adv-x="351" 
d="M231 0h-74v673h-127v67h201v-740z" />
    <glyph glyph-name="two" unicode="2" horiz-adv-x="554" 
d="M480 0h-445v67l240 250q78 80 109 125.5t31 98.5q0 63 -42.5 104t-108.5 41q-63 0 -101 -39.5t-46 -107.5h-74q8 101 70 157.5t155 56.5q97 0 159 -59.5t62 -152.5q0 -49 -22 -96.5t-45 -75t-69 -75.5l-218 -227h345v-67z" />
    <glyph glyph-name="three" unicode="3" horiz-adv-x="566" 
d="M263 362v67h31q54 0 89 35t35 93q0 60 -37 95.5t-91 35.5q-57 0 -92.5 -39.5t-35.5 -98.5v-13h-75v13q0 84 59.5 143.5t146.5 59.5q83 0 141.5 -55.5t58.5 -140.5q0 -51 -23 -94.5t-65 -66.5q52 -25 79 -72t27 -106q0 -103 -65.5 -167t-162.5 -64q-96 0 -162 63.5
t-66 163.5h76q0 -74 42 -117.5t110 -43.5q69 0 110.5 44t41.5 123q0 142 -172 142z" />
    <glyph glyph-name="four" unicode="4" horiz-adv-x="582" 
d="M462 0h-74v135h-353v67l339 538h88v-538h75v-67h-75v-135zM388 202v436h-2l-266 -436h268z" />
    <glyph glyph-name="five" unicode="5" horiz-adv-x="588" 
d="M45 215h78q13 -73 58 -117t113 -44q77 0 127.5 54t50.5 134q0 75 -44.5 129.5t-126.5 54.5q-94 0 -143 -62l-55 34l58 342h322v-67h-261l-37 -208q52 29 119 29q110 0 177 -73.5t67 -177.5q0 -109 -73 -182.5t-179 -73.5q-98 0 -167.5 64.5t-83.5 163.5z" />
    <glyph glyph-name="six" unicode="6" horiz-adv-x="584" 
d="M95 391l184 349h79l-150 -287q43 22 86 22q102 0 173.5 -71.5t71.5 -172.5t-71.5 -172.5t-173.5 -71.5t-175.5 69t-73.5 169q0 71 50 166zM296 53q73 0 121 51.5t48 126.5t-48.5 126.5t-121.5 51.5q-74 0 -125 -52t-51 -126t51.5 -126t125.5 -52z" />
    <glyph glyph-name="seven" unicode="7" horiz-adv-x="503" 
d="M155 0h-78l295 673h-352v67h428v-67z" />
    <glyph glyph-name="eight" unicode="8" horiz-adv-x="624" 
d="M453 458q53 -35 84.5 -91.5t31.5 -122.5q0 -106 -75.5 -181.5t-181.5 -75.5t-181.5 75.5t-75.5 181.5q0 66 31.5 123t84.5 92q-40 50 -40 113q0 75 53 128t128 53t128 -53t53 -128q0 -64 -40 -114zM312 54q78 0 129.5 55t51.5 135t-51.5 135t-129.5 55t-129.5 -55
t-51.5 -135t51.5 -135t129.5 -55zM393 488q25 31 25 81q0 52 -29 85.5t-77 33.5t-77 -33t-29 -83t27 -83q37 12 77 12q41 0 83 -13z" />
    <glyph glyph-name="nine" unicode="9" horiz-adv-x="584" 
d="M305 0h-78l149 287q-43 -22 -86 -22q-102 0 -173.5 71.5t-71.5 172.5t71.5 172.5t173.5 71.5t175.5 -69t73.5 -169q0 -71 -50 -166zM289 331q74 0 125 52t51 126t-51.5 126t-125.5 52q-73 0 -121 -51.5t-48 -126.5t48.5 -126.5t121.5 -51.5z" />
    <glyph glyph-name="colon" unicode=":" horiz-adv-x="292" 
d="M146 -5q-20 0 -33 13.5t-13 32.5t13 32.5t33 13.5t33 -13.5t13 -32.5t-13 -32.5t-33 -13.5zM146 383q-20 0 -33 13.5t-13 32.5t13 32.5t33 13.5t33 -13.5t13 -32.5t-13 -32.5t-33 -13.5z" />
    <glyph glyph-name="semicolon" unicode=";" horiz-adv-x="292" 
d="M146 383q-20 0 -33 13.5t-13 32.5t13 32.5t33 13.5t33 -13.5t13 -32.5t-13 -32.5t-33 -13.5zM110 -92v38q15 2 28 16t14 34q-2 -1 -8 -1q-18 0 -31 13.5t-13 32.5q0 20 13.5 33t33.5 13q23 0 35.5 -17.5t12.5 -45.5q0 -43 -23.5 -79t-61.5 -37z" />
    <glyph glyph-name="less" unicode="&#x3c;" horiz-adv-x="435" 
d="M395 54l-52 -48l-343 340l343 340l51 -48l-297 -292z" />
    <glyph glyph-name="equal" unicode="=" horiz-adv-x="614" 
d="M559 413h-504v68h504v-68zM559 211h-504v68h504v-68z" />
    <glyph glyph-name="greater" unicode="&#x3e;" horiz-adv-x="435" 
d="M435 346l-343 -340l-52 48l298 292l-297 292l51 48z" />
    <glyph glyph-name="question" unicode="?" horiz-adv-x="528" 
d="M249 181h-74v84q0 65 33 99.5t98 63.5q27 12 42.5 20.5t33 23t25 34t7.5 46.5q0 63 -42.5 97t-101.5 34q-67 0 -98.5 -42.5t-32.5 -105.5h-74v3q0 91 56.5 153t152.5 62q92 0 153 -58t61 -150q0 -41 -12 -71.5t-37.5 -51.5t-45 -32t-54.5 -26q-44 -19 -67 -43t-23 -68
v-72zM212 -5q-20 0 -33 13.5t-13 32.5t13 32.5t33 13.5t33 -13.5t13 -32.5t-13 -32.5t-33 -13.5z" />
    <glyph glyph-name="at" unicode="@" horiz-adv-x="965" 
d="M717 -131l33 -49q-125 -82 -260 -82q-89 0 -168 30.5t-140 86.5t-96.5 142t-35.5 190q0 87 25.5 161.5t68.5 126.5t101 89t122.5 55t131.5 18q80 0 154 -25.5t132.5 -73t94 -122.5t35.5 -166q0 -115 -51.5 -195.5t-137.5 -80.5q-46 0 -76.5 24t-39.5 66q-54 -78 -154 -78
q-87 0 -142.5 58.5t-55.5 147.5q0 90 56 148.5t143 58.5q100 0 153 -79v71h66v-282q0 -33 16 -52.5t45 -19.5q51 0 80.5 58t29.5 142q0 80 -29.5 145.5t-78.5 106.5t-111 63.5t-129 22.5q-72 0 -139 -25.5t-121.5 -72.5t-87.5 -122.5t-33 -168.5q0 -172 105.5 -278.5
t278.5 -106.5q124 0 215 68zM459 49q59 0 98 41.5t39 100.5q0 60 -39 102t-98 42q-58 0 -93 -40.5t-35 -103.5q0 -62 35 -102t93 -40z" />
    <glyph glyph-name="A" unicode="A" horiz-adv-x="673" 
d="M668 0h-81l-72 188h-360l-73 -188h-77l285 740h91zM489 255l-153 401l-155 -401h308z" />
    <glyph glyph-name="B" unicode="B" horiz-adv-x="597" 
d="M291 0h-201v740h188q114 0 182 -51.5t68 -144.5q0 -116 -106 -154q67 -16 101 -65t34 -118q0 -104 -74 -155.5t-192 -51.5zM164 421h120q170 0 170 123q0 129 -187 129h-103v-252zM164 67h111q41 0 73 5t65 18.5t51.5 43.5t18.5 75q0 145 -211 145h-108v-287z" />
    <glyph glyph-name="C" unicode="C" horiz-adv-x="718" 
d="M630 139l56 -42q-113 -110 -265 -110q-159 0 -272.5 111.5t-113.5 272.5q0 160 112 270.5t273 110.5q164 0 278 -116l-64 -35q-89 84 -212 84q-128 0 -220.5 -95t-92.5 -221t93.5 -220.5t219.5 -94.5q117 0 208 85z" />
    <glyph glyph-name="D" unicode="D" horiz-adv-x="718" 
d="M287 0h-197v740h199q168 0 281 -101.5t113 -270.5q0 -168 -113 -268t-283 -100zM164 67h114q148 0 239.5 76.5t91.5 223.5q0 80 -28.5 140.5t-79 96t-112.5 52.5t-135 17h-90v-606z" />
    <glyph glyph-name="E" unicode="E" horiz-adv-x="541" 
d="M486 0h-396v740h396v-67h-322v-253h281v-67h-281v-286h322v-67z" />
    <glyph glyph-name="F" unicode="F" horiz-adv-x="541" 
d="M164 0h-74v740h411v-67h-337v-253h296v-67h-296v-353z" />
    <glyph glyph-name="G" unicode="G" horiz-adv-x="829" 
d="M764 398v-44q0 -168 -99 -267.5t-249 -99.5q-161 0 -271 111t-110 271q0 162 113 273t273 111q83 0 159 -32.5t133 -92.5l-49 -51q-42 51 -108.5 80t-136.5 29q-129 0 -219.5 -92.5t-90.5 -227.5q0 -132 87.5 -222t220.5 -90q116 0 195 72t81 205h-292v67h363z" />
    <glyph glyph-name="H" unicode="H" horiz-adv-x="771" 
d="M681 0h-74v357h-443v-357h-74v740h74v-316h443v316h74v-740z" />
    <glyph glyph-name="I" unicode="I" horiz-adv-x="254" 
d="M164 0h-74v740h74v-740z" />
    <glyph glyph-name="J" unicode="J" horiz-adv-x="254" 
d="M-31 -212h-6v67h7q39 0 64.5 14.5t37 43t15 55.5t3.5 65v707h74v-704q0 -98 -19 -141q-22 -50 -70.5 -78.5t-105.5 -28.5z" />
    <glyph glyph-name="K" unicode="K" horiz-adv-x="572" 
d="M219 370l348 -370h-91l-312 330v-330h-74v740h74v-336l289 336h88z" />
    <glyph glyph-name="L" unicode="L" horiz-adv-x="537" 
d="M517 0h-427v740h74v-673h353v-67z" />
    <glyph glyph-name="M" unicode="M" horiz-adv-x="895" 
d="M805 0h-74v659l-257 -359h-57l-253 359v-659h-74v740h109l247 -360l250 360h109v-740z" />
    <glyph glyph-name="N" unicode="N" horiz-adv-x="815" 
d="M725 0h-74l-487 650v-650h-74v740h100l461 -612v612h74v-740z" />
    <glyph glyph-name="O" unicode="O" horiz-adv-x="843" 
d="M808 370q0 -160 -112.5 -271.5t-273.5 -111.5t-274 110.5t-113 271.5q0 160 111 272t275 112q163 0 275 -111t112 -272zM422 54q132 0 222 92t90 223q0 132 -90 224.5t-223 92.5q-134 0 -223 -93.5t-89 -224.5q0 -132 90.5 -223t222.5 -91z" />
    <glyph glyph-name="P" unicode="P" horiz-adv-x="597" 
d="M164 0h-74v740h189q57 0 103.5 -11.5t86 -36.5t61.5 -71.5t22 -111.5q0 -119 -73 -175t-200 -56h-115v-278zM164 345h111q203 0 203 163q0 165 -203 165h-111v-328z" />
    <glyph glyph-name="Q" unicode="Q" horiz-adv-x="843" 
d="M825 67v-67q-382 -1 -403 -1q-162 0 -274.5 106t-112.5 266q0 159 111.5 270.5t275.5 111.5q163 0 274.5 -109.5t111.5 -270.5q0 -99 -44.5 -178t-128.5 -128h190zM734 372q0 133 -89.5 223.5t-222.5 90.5q-135 0 -224 -92.5t-89 -223.5t90 -217.5t223 -86.5t222.5 87
t89.5 219z" />
    <glyph glyph-name="R" unicode="R" horiz-adv-x="628" 
d="M613 0h-87l-197 338h-165v-338h-74v740h244q58 0 101 -8.5t80.5 -30t57 -62.5t19.5 -100q0 -91 -46 -137.5t-135 -58.5zM164 405h166q45 0 75 4.5t58 17.5t41.5 40.5t13.5 70.5q0 74 -44.5 104.5t-143.5 30.5h-166v-268z" />
    <glyph glyph-name="S" unicode="S" horiz-adv-x="529" 
d="M30 107l47 57q79 -110 179 -110q66 0 112.5 42.5t46.5 104.5q0 37 -19 64t-49.5 43.5t-68 31t-74.5 31t-67.5 38t-49.5 58t-19 85.5q0 86 56 143.5t164 57.5q110 0 186 -70l-46 -53q-64 56 -142 56q-68 0 -106 -35t-38 -90q0 -33 15 -58.5t39.5 -41t55.5 -30t63.5 -25.5
t63.5 -28t55.5 -37.5t39.5 -54t15 -76.5q0 -98 -67.5 -160.5t-161.5 -62.5q-70 0 -134.5 36t-95.5 84z" />
    <glyph glyph-name="T" unicode="T" horiz-adv-x="573" 
d="M324 0h-74v673h-235v67h543v-67h-234v-673z" />
    <glyph glyph-name="U" unicode="U" horiz-adv-x="792" 
d="M638 337v403h74v-413q0 -162 -87.5 -251t-228.5 -89t-228.5 89t-87.5 251v413h74v-403q0 -134 65.5 -208.5t176.5 -74.5t176.5 74.5t65.5 208.5z" />
    <glyph glyph-name="V" unicode="V" horiz-adv-x="691" 
d="M380 0h-73l-297 740h82l253 -648l256 648h80z" />
    <glyph glyph-name="W" unicode="W" horiz-adv-x="1014" 
d="M772 0h-73l-192 621l-194 -621h-73l-230 740h82l186 -648l192 648h74l190 -648l188 648h82z" />
    <glyph glyph-name="X" unicode="X" horiz-adv-x="624" 
d="M594 0h-87l-196 293l-195 -293h-87l239 359l-253 381h87l209 -316l211 316h87l-254 -381z" />
    <glyph glyph-name="Y" unicode="Y" horiz-adv-x="611" 
d="M341 0h-74v339l-257 401h84l211 -323l215 323h81l-260 -401v-339z" />
    <glyph glyph-name="Z" unicode="Z" horiz-adv-x="648" 
d="M598 0h-558v67l469 606h-458v67h546v-67l-468 -606h469v-67z" />
    <glyph glyph-name="bracketleft" unicode="[" horiz-adv-x="289" 
d="M279 -143v-59h-219v942h219v-60h-146v-823h146z" />
    <glyph glyph-name="backslash" unicode="\" horiz-adv-x="474" 
d="M474 0h-67l-407 740h67z" />
    <glyph glyph-name="bracketright" unicode="]" horiz-adv-x="289" 
d="M229 740v-942h-219v59h146v823h-146v60h219z" />
    <glyph glyph-name="asciicircum" unicode="^" horiz-adv-x="522" 
d="M487 336h-70l-157 331l-155 -331h-70l194 404h64z" />
    <glyph glyph-name="underscore" unicode="_" horiz-adv-x="563" 
d="M543 -50h-523v50h523v-50z" />
    <glyph glyph-name="grave" unicode="`" horiz-adv-x="331" 
d="M248 540l-198 105l33 61l197 -111z" />
    <glyph glyph-name="a" unicode="a" 
d="M551 0h-70v81q-64 -94 -185 -94q-107 0 -179 71t-72 177q0 107 73 178t179 71q121 0 184 -95v86h70v-475zM295 50q80 0 131 53.5t51 130.5q0 78 -51.5 132.5t-130.5 54.5q-78 0 -129.5 -53.5t-51.5 -133.5t51 -132t130 -52z" />
    <glyph glyph-name="b" unicode="b" 
d="M155 81v-81h-70v740h70v-351q63 95 184 95q106 0 179 -71t73 -178q0 -106 -72 -177t-179 -71q-121 0 -185 94zM341 50q79 0 130 52t51 132t-51.5 133.5t-129.5 53.5q-79 0 -130.5 -54.5t-51.5 -132.5q0 -77 51 -130.5t131 -53.5z" />
    <glyph glyph-name="c" unicode="c" horiz-adv-x="529" 
d="M448 139l56 -32q-34 -55 -90 -87.5t-122 -32.5q-101 0 -174 72.5t-73 174.5q0 101 72 175.5t175 74.5q65 0 121 -32.5t90 -87.5l-57 -32q-24 40 -65.5 64.5t-89.5 24.5q-75 0 -126 -56t-51 -131q0 -76 52 -130t128 -54q50 0 90 24t64 65z" />
    <glyph glyph-name="d" unicode="d" 
d="M551 0h-70v81q-64 -94 -185 -94q-107 0 -179 71t-72 177q0 107 73 178t179 71q121 0 184 -95v351h70v-740zM295 50q80 0 131 53.5t51 130.5q0 78 -51.5 132.5t-130.5 54.5q-78 0 -129.5 -53.5t-51.5 -133.5t51 -132t130 -52z" />
    <glyph glyph-name="e" unicode="e" horiz-adv-x="572" 
d="M532 209h-416q8 -67 58 -113t118 -46q44 0 84 21t64 56l52 -37q-34 -48 -86.5 -75.5t-112.5 -27.5q-102 0 -175 72.5t-73 175.5q0 101 70.5 175t173.5 74q102 0 172.5 -73.5t70.5 -175.5v-26zM117 272h343q-11 64 -57.5 106.5t-113.5 42.5q-66 0 -113 -42.5t-59 -106.5z
" />
    <glyph glyph-name="f" unicode="f" horiz-adv-x="300" 
d="M155 0h-70v412h-70v63h70v109q0 156 146 156q34 0 64 -10v-63q-30 9 -56 9q-84 0 -84 -95v-106h130v-63h-130v-412z" />
    <glyph glyph-name="g" unicode="g" 
d="M481 34v47q-64 -94 -185 -94q-107 0 -179 71t-72 177q0 107 73 178t179 71q121 0 184 -95v86h70v-431q0 -80 -21.5 -139.5t-58 -92.5t-80 -49t-93.5 -16q-146 0 -218 116l64 27q47 -80 150 -80q82 0 134.5 52.5t52.5 171.5zM295 50q80 0 131 53.5t51 130.5
q0 78 -51.5 132.5t-130.5 54.5q-78 0 -129.5 -53.5t-51.5 -133.5t51 -132t130 -52z" />
    <glyph glyph-name="h" unicode="h" horiz-adv-x="578" 
d="M503 0h-70v244q0 84 -29 130.5t-105 46.5q-81 0 -112.5 -51.5t-31.5 -140.5v-229h-70v740h70v-332q53 76 151 76q93 0 145 -55.5t52 -164.5v-264z" />
    <glyph glyph-name="i" unicode="i" horiz-adv-x="240" 
d="M155 0h-70v475h70v-475zM120 585q-20 0 -33 13.5t-13 32.5t13 32.5t33 13.5t33 -13.5t13 -32.5t-13 -32.5t-33 -13.5z" />
    <glyph glyph-name="j" unicode="j" horiz-adv-x="240" 
d="M155 -253h-70v728h70v-728zM120 585q-20 0 -33 13.5t-13 32.5t13 32.5t33 13.5t33 -13.5t13 -32.5t-13 -32.5t-33 -13.5z" />
    <glyph glyph-name="k" unicode="k" horiz-adv-x="466" 
d="M461 0h-90l-216 243v-243h-70v740h70v-472l193 207h96l-210 -218z" />
    <glyph glyph-name="l" unicode="l" horiz-adv-x="258" 
d="M249 53v-59q-25 -7 -51 -7q-52 0 -82.5 33t-30.5 95v625h70v-592q0 -54 14 -75.5t52 -21.5q17 0 28 2z" />
    <glyph glyph-name="m" unicode="m" horiz-adv-x="846" 
d="M771 0h-70v244q0 34 -1.5 54.5t-7 46.5t-16.5 40.5t-32 25t-51 10.5q-72 0 -101 -50.5t-29 -141.5v-229h-70v244q0 34 -1.5 54.5t-7 46.5t-16.5 40.5t-32 25t-51 10.5q-72 0 -101 -50.5t-29 -141.5v-229h-70v475h70v-67q54 76 137 76q119 0 154 -104q57 104 155 104
q170 0 170 -220v-264z" />
    <glyph glyph-name="n" unicode="n" horiz-adv-x="578" 
d="M503 0h-70v244q0 84 -29 130.5t-105 46.5q-81 0 -112.5 -51.5t-31.5 -140.5v-229h-70v475h70v-67q53 76 151 76q93 0 145 -55.5t52 -164.5v-264z" />
    <glyph glyph-name="o" unicode="o" horiz-adv-x="585" 
d="M540 235q0 -102 -73.5 -175t-174.5 -73t-174 72.5t-73 174.5q0 101 72 175.5t174 74.5t175.5 -74t73.5 -175zM293 50q76 0 127 55.5t51 130.5q0 77 -52 131t-127 54q-76 0 -127 -55.5t-51 -131.5t51.5 -130t127.5 -54z" />
    <glyph glyph-name="p" unicode="p" 
d="M155 81v-334h-70v728h70v-86q63 95 184 95q106 0 179 -71t73 -178q0 -106 -72 -177t-179 -71q-121 0 -185 94zM341 50q79 0 130 52t51 132t-51.5 133.5t-129.5 53.5q-79 0 -130.5 -54.5t-51.5 -132.5q0 -77 51 -130.5t131 -53.5z" />
    <glyph glyph-name="q" unicode="q" 
d="M551 -253h-70v334q-64 -94 -185 -94q-107 0 -179 71t-72 177q0 107 73 178t179 71q121 0 184 -95v86h70v-728zM295 50q80 0 131 53.5t51 130.5q0 78 -51.5 132.5t-130.5 54.5q-78 0 -129.5 -53.5t-51.5 -133.5t51 -132t130 -52z" />
    <glyph glyph-name="r" unicode="r" horiz-adv-x="351" 
d="M155 253v-253h-70v475h70v-78q33 54 72.5 70.5t113.5 16.5v-65q-56 0 -94.5 -14t-57.5 -39t-26.5 -52t-7.5 -61z" />
    <glyph glyph-name="s" unicode="s" horiz-adv-x="424" 
d="M40 44l39 55q62 -49 135 -49q45 0 72.5 19t27.5 53q0 31 -26 49.5t-63.5 28t-75 21.5t-63.5 41t-26 77q0 65 44.5 105t115.5 40q81 0 147 -47l-37 -55q-48 39 -111 39q-40 0 -64.5 -20.5t-24.5 -51.5q0 -25 19 -42t47 -25t61 -19t61 -23.5t47 -40.5t19 -69
q0 -68 -47.5 -105.5t-121.5 -37.5q-100 0 -175 57z" />
    <glyph glyph-name="t" unicode="t" horiz-adv-x="307" 
d="M280 60v-63q-30 -10 -64 -10q-126 0 -126 128v297h-75v63h75v161h70v-161h132v-63h-132v-264q0 -54 14 -75.5t52 -21.5q28 0 54 9z" />
    <glyph glyph-name="u" unicode="u" horiz-adv-x="574" 
d="M426 211v264h70v-284q0 -108 -53 -156t-156 -48t-156 48t-53 156v284h70v-264q0 -80 29.5 -120.5t109.5 -40.5t109.5 40.5t29.5 120.5z" />
    <glyph glyph-name="v" unicode="v" horiz-adv-x="498" 
d="M288 0h-77l-201 475h75l163 -388l165 388h75z" />
    <glyph glyph-name="w" unicode="w" horiz-adv-x="816" 
d="M619 0h-77l-134 381l-134 -381h-77l-187 475h75l149 -388l139 388h70l139 -388l149 388h75z" />
    <glyph glyph-name="x" unicode="x" horiz-adv-x="451" 
d="M436 0h-82l-128 193l-128 -193h-83l170 252l-155 223h83l113 -165l112 165h84l-155 -223z" />
    <glyph glyph-name="y" unicode="y" horiz-adv-x="457" 
d="M184 -253h-71l89 248l-192 480h74l153 -385l138 385h72z" />
    <glyph glyph-name="z" unicode="z" horiz-adv-x="471" 
d="M421 0h-371v61l287 351h-287v63h371v-63l-284 -349h284v-63z" />
    <glyph glyph-name="braceleft" unicode="{" horiz-adv-x="321" 
d="M311 -203h-66q-51 0 -78.5 38.5t-27.5 92.5v182q0 115 -119 119v78q119 4 119 120v182q0 54 27.5 92.5t78.5 38.5h66v-60h-50q-48 0 -48 -86v-190q0 -47 -28 -85t-89 -50q60 -8 88.5 -52.5t28.5 -97.5v-176q0 -86 48 -86h50v-60z" />
    <glyph glyph-name="bar" unicode="|" horiz-adv-x="214" 
d="M144 -140h-74v880h74v-880z" />
    <glyph glyph-name="braceright" unicode="}" horiz-adv-x="321" 
d="M76 -203h-66v60h50q48 0 48 86v176q0 53 28.5 97.5t88.5 52.5q-61 12 -89 50t-28 85v190q0 86 -48 86h-50v60h66q51 0 78.5 -38.5t27.5 -92.5v-182q0 -116 119 -120v-78q-119 -4 -119 -119v-182q0 -54 -27.5 -92.5t-78.5 -38.5z" />
    <glyph glyph-name="asciitilde" unicode="~" horiz-adv-x="562" 
d="M455 385h55q2 -16 2 -24q0 -51 -35.5 -83.5t-87.5 -32.5q-44 0 -110 40t-110 40q-63 0 -63 -60q0 -12 1 -19h-55q-2 18 -2 25q0 54 36.5 84.5t94.5 30.5q35 0 66.5 -12.5t51 -27.5t45.5 -27.5t52 -12.5q60 0 60 61q0 12 -1 18z" />
    <glyph glyph-name="uni00A0" unicode="&#xa0;" horiz-adv-x="270" 
 />
    <glyph glyph-name="exclamdown" unicode="&#xa1;" horiz-adv-x="252" 
d="M161 -192h-74v272l25 295h24l25 -295v-272zM172 507q0 -19 -13 -32.5t-33 -13.5t-33 13.5t-13 32.5t13 32.5t33 13.5t33 -13.5t13 -32.5z" />
    <glyph glyph-name="cent" unicode="&#xa2;" horiz-adv-x="589" 
d="M335 0h-69v127q-86 17 -143.5 85.5t-57.5 157.5t57 159t144 86v125h69v-122q58 -5 108 -37t80 -81l-57 -32q-46 76 -131 87v-368q87 9 133 88l56 -32q-30 -50 -80 -82t-109 -37v-124zM266 192v359q-59 -16 -95.5 -67t-36.5 -114t36.5 -112t95.5 -66z" />
    <glyph glyph-name="sterling" unicode="&#xa3;" horiz-adv-x="573" 
d="M520 0h-490v63q52 23 86 62.5t45 75t11 70.5q0 29 -9 58h-84v63h60q-39 90 -39 150q0 88 54.5 149.5t154.5 61.5q93 0 148 -56.5t66 -153.5h-72q-11 68 -43 107.5t-99 39.5q-71 0 -103 -43t-32 -101q0 -11 1 -22.5t4 -23.5t5 -21t7 -23t7.5 -20.5t8.5 -22.5t8 -21h187
v-63h-166q9 -30 9 -62q0 -56 -29.5 -111t-86.5 -93h391v-63z" />
    <glyph glyph-name="currency" unicode="&#xa4;" horiz-adv-x="612" 
d="M567 128l-41 -41l-78 78q-65 -49 -141 -49q-78 0 -141 49l-79 -78l-41 41l80 79q-50 63 -50 139q0 81 50 140l-81 80l41 41l81 -81q63 50 140 50t139 -49l80 80l41 -41l-79 -80q50 -63 50 -140t-51 -139zM466 346q0 65 -47 112t-112 47q-66 0 -113 -47t-47 -113
q0 -64 48 -110.5t112 -46.5q65 0 112 47t47 111z" />
    <glyph glyph-name="yen" unicode="&#xa5;" horiz-adv-x="611" 
d="M341 0h-74v222h-216v63h216v54l-23 35h-193v63h153l-194 303h84l211 -323l215 323h81l-197 -303h155v-63h-196l-22 -35v-54h218v-63h-218v-222z" />
    <glyph glyph-name="brokenbar" unicode="&#xa6;" horiz-adv-x="214" 
d="M144 390h-74v350h74v-350zM144 -140h-74v350h74v-350z" />
    <glyph glyph-name="section" unicode="&#xa7;" horiz-adv-x="534" 
d="M69 23h74q3 -53 36.5 -90.5t89.5 -37.5q49 0 83 28t34 73q0 36 -25.5 65t-63 46.5t-82 39t-82 41.5t-63 53.5t-25.5 76.5q0 75 89 142q-40 42 -40 102q0 70 52.5 115t123.5 45q74 0 128 -47.5t54 -120.5h-74q0 40 -33 70.5t-78 30.5q-41 0 -70 -26t-29 -71q0 -56 57 -84
q71 -36 103.5 -51.5t43.5 -21.5q55 -27 86 -60.5t31 -84.5q0 -44 -23 -81t-58 -60q52 -43 52 -115q0 -78 -57 -125t-134 -47q-85 0 -141.5 57.5t-58.5 137.5zM353 335l-175 87q-27 -16 -43 -43.5t-16 -57.5q0 -51 52 -77l188 -94q26 16 41 43.5t15 54.5q0 56 -62 87z" />
    <glyph glyph-name="dieresis" unicode="&#xa8;" horiz-adv-x="346" 
d="M96 541q-20 0 -33 13.5t-13 32.5t13 32.5t33 13.5t33 -13.5t13 -32.5t-13 -32.5t-33 -13.5zM250 541q-20 0 -33 13.5t-13 32.5t13 32.5t33 13.5t33 -13.5t13 -32.5t-13 -32.5t-33 -13.5z" />
    <glyph glyph-name="copyright" unicode="&#xa9;" horiz-adv-x="864" 
d="M814 370q0 -158 -112 -270t-270 -112t-270 111.5t-112 270.5t112 270.5t271 111.5q158 0 269.5 -112t111.5 -270zM432 39q137 0 232 97.5t95 233.5t-95 233.5t-232 97.5t-232 -97t-95 -234q0 -136 95 -233.5t232 -97.5zM581 288l47 -28q-28 -46 -76.5 -74t-104.5 -28
q-86 0 -148.5 62t-62.5 149q0 86 62 149.5t149 63.5q56 0 104 -27.5t77 -74.5l-49 -28q-21 35 -56 55.5t-76 20.5q-65 0 -108.5 -47.5t-43.5 -111.5q0 -65 44.5 -111t109.5 -46q87 0 132 76z" />
    <glyph glyph-name="ordfeminine" unicode="&#xaa;" horiz-adv-x="449" 
d="M399 407h-60v52q-38 -60 -121 -60q-72 0 -120 48.5t-48 120.5q0 73 48 122.5t120 49.5q82 0 121 -60v52h60v-325zM339 567q0 55 -36 86t-86 31q-51 0 -79 -32.5t-28 -82.5q0 -52 30.5 -83t80.5 -31q47 0 82.5 28.5t35.5 83.5z" />
    <glyph glyph-name="guillemotleft" unicode="&#xab;" horiz-adv-x="455" 
d="M244 52h-77l-127 201l127 199h75l-124 -199zM415 52h-77l-127 201l127 199h75l-124 -199z" />
    <glyph glyph-name="logicalnot" unicode="&#xac;" horiz-adv-x="620" 
d="M560 93h-68v219h-442v68h510v-287z" />
    <glyph glyph-name="registered" unicode="&#xae;" horiz-adv-x="864" 
d="M814 370q0 -158 -112 -270t-270 -112t-270 111.5t-112 270.5t112 270.5t271 111.5q158 0 269.5 -112t111.5 -270zM432 39q137 0 232 97.5t95 233.5t-95 233.5t-232 97.5t-232 -97t-95 -234q0 -136 95 -233.5t232 -97.5zM603 149h-69l-110 188h-80v-186h-55v437h138
q28 0 49.5 -2t48 -9t43.5 -19.5t28.5 -36t11.5 -55.5q0 -105 -119 -125zM344 386h80q28 0 47.5 2.5t40 10t31 24t10.5 41.5q0 45 -32.5 59t-96.5 14h-80v-151z" />
    <glyph glyph-name="macron" unicode="&#xaf;" horiz-adv-x="438" 
d="M388 558h-338v67h338v-67z" />
    <glyph glyph-name="degree" unicode="&#xb0;" horiz-adv-x="380" 
d="M340 570q0 -62 -44 -106t-106 -44t-106 44t-44 106t44 106t106 44t106 -44t44 -106zM288 570q0 41 -28.5 69.5t-69.5 28.5t-69.5 -28.5t-28.5 -69.5t28.5 -69.5t69.5 -28.5t69.5 28.5t28.5 69.5z" />
    <glyph glyph-name="plusminus" unicode="&#xb1;" horiz-adv-x="614" 
d="M559 0h-504v68h504v-68zM341 135h-68v219h-218v68h218v219h68v-219h218v-68h-218v-219z" />
    <glyph glyph-name="twosuperior" unicode="&#xb2;" horiz-adv-x="384" 
d="M338 296h-298v49l158 147q81 74 81 128q0 33 -25.5 53t-62.5 20q-43 0 -64.5 -27.5t-22.5 -73.5h-60q0 69 40.5 112t108.5 43q62 0 104 -35.5t42 -94.5q0 -73 -82 -149l-129 -118h210v-54z" />
    <glyph glyph-name="threesuperior" unicode="&#xb3;" horiz-adv-x="398" 
d="M187 514v40h15q31 0 52.5 21t21.5 56q0 33 -19.5 48.5t-49.5 15.5q-36 0 -51.5 -20t-15.5 -49v-8h-58v8q0 51 36 86t92 35q54 0 90.5 -32.5t36.5 -84.5q0 -67 -52 -96q63 -30 63 -106q0 -59 -42 -98.5t-107 -39.5q-66 0 -107.5 41t-41.5 108h58q0 -48 25 -72t66 -24
q39 0 63 22t24 64q0 85 -99 85z" />
    <glyph glyph-name="acute" unicode="&#xb4;" horiz-adv-x="332" 
d="M282 648l-199 -108l-32 53l198 114z" />
    <glyph glyph-name="mu" unicode="&#xb5;" horiz-adv-x="581" 
d="M155 -253h-70v728h70v-264q0 -80 29.5 -120.5t109.5 -40.5t109.5 40.5t29.5 120.5v264h70v-284q0 -108 -53 -156t-155 -48q-96 0 -140 54v-294z" />
    <glyph glyph-name="paragraph" unicode="&#xb6;" horiz-adv-x="658" 
d="M506 -193h-62v877h-129v-877h-62v488q-110 11 -166.5 73t-56.5 145q0 91 63 159t170 68h375v-56h-132v-877zM253 347v339q-80 0 -122.5 -51.5t-42.5 -116.5q0 -63 42 -114t123 -57z" />
    <glyph glyph-name="periodcentered" unicode="&#xb7;" horiz-adv-x="292" 
d="M146 209q-20 0 -33 13.5t-13 32.5t13 32.5t33 13.5t33 -13.5t13 -32.5t-13 -32.5t-33 -13.5z" />
    <glyph glyph-name="cedilla" unicode="&#xb8;" horiz-adv-x="300" 
d="M151 -84h-77l30 84h46l-18 -47h21q43 0 70 -21t27 -66q0 -55 -29.5 -79t-73.5 -24q-36 0 -64 23t-33 77h42q7 -63 60 -63q27 0 42 15.5t15 45.5q0 55 -58 55z" />
    <glyph glyph-name="onesuperior" unicode="&#xb9;" horiz-adv-x="225" 
d="M175 296h-60v390h-75v54h135v-444z" />
    <glyph glyph-name="ordmasculine" unicode="&#xba;" horiz-adv-x="448" 
d="M398 570q0 -71 -50.5 -121t-123.5 -50q-72 0 -123 49t-51 120t50.5 122t123.5 51q72 0 123 -49.5t51 -121.5zM225 455q50 0 81.5 33t31.5 82t-32 82t-82 33t-82 -33.5t-32 -82.5q0 -48 32.5 -81t82.5 -33z" />
    <glyph glyph-name="guillemotright" unicode="&#xbb;" horiz-adv-x="455" 
d="M117 52h-77l126 201l-124 199h75l127 -199zM288 52h-77l126 201l-124 199h75l127 -199z" />
    <glyph glyph-name="onequarter" unicode="&#xbc;" horiz-adv-x="736" 
d="M175 296h-60v390h-75v54h135v-444zM628 0h-59v74h-212v49l206 311h65v-306h48v-54h-48v-74zM569 128v216l-146 -216h146zM172 0h-67l406 740h67z" />
    <glyph glyph-name="onehalf" unicode="&#xbd;" horiz-adv-x="805" 
d="M175 296h-60v390h-75v54h135v-444zM172 0h-67l406 740h67zM744 0h-298v49l158 147q81 74 81 128q0 33 -25.5 53t-62.5 20q-43 0 -64.5 -27.5t-22.5 -73.5h-60q0 69 40.5 112t108.5 43q62 0 104 -35.5t42 -94.5q0 -73 -82 -149l-129 -118h210v-54z" />
    <glyph glyph-name="threequarters" unicode="&#xbe;" horiz-adv-x="868" 
d="M760 0h-59v74h-212v49l206 311h65v-306h48v-54h-48v-74zM701 128v216l-146 -216h146zM304 0h-67l406 740h67zM187 514v40h15q31 0 52.5 21t21.5 56q0 33 -19.5 48.5t-49.5 15.5q-36 0 -51.5 -20t-15.5 -49v-8h-58v8q0 51 36 86t92 35q54 0 90.5 -32.5t36.5 -84.5
q0 -67 -52 -96q63 -30 63 -106q0 -59 -42 -98.5t-107 -39.5q-66 0 -107.5 41t-41.5 108h58q0 -48 25 -72t66 -24q39 0 63 22t24 64q0 85 -99 85z" />
    <glyph glyph-name="questiondown" unicode="&#xbf;" horiz-adv-x="493" 
d="M473 13v-3q0 -91 -56.5 -153t-152.5 -62q-92 0 -153 58t-61 150q0 33 9.5 60.5t22 44.5t36 33t38.5 23.5t43 19.5q44 19 67 43t23 68v72h74v-84q0 -65 -33 -99t-98 -63q-28 -12 -42.5 -20.5t-32 -23t-25.5 -34.5t-8 -47q0 -63 42.5 -97t101.5 -34q67 0 98.5 42.5
t32.5 105.5h74zM372 507q0 -19 -13 -32.5t-33 -13.5t-33 13.5t-13 32.5t13 32.5t33 13.5t33 -13.5t13 -32.5z" />
    <glyph glyph-name="Agrave" unicode="&#xc0;" horiz-adv-x="673" 
d="M668 0h-81l-72 188h-360l-73 -188h-77l285 740h91zM489 255l-153 401l-155 -401h308zM399 805l-198 105l33 61l197 -111z" />
    <glyph glyph-name="Aacute" unicode="&#xc1;" horiz-adv-x="673" 
d="M668 0h-81l-72 188h-360l-73 -188h-77l285 740h91zM489 255l-153 401l-155 -401h308zM452 913l-199 -108l-32 53l198 114z" />
    <glyph glyph-name="Acircumflex" unicode="&#xc2;" horiz-adv-x="673" 
d="M668 0h-81l-72 188h-360l-73 -188h-77l285 740h91zM489 255l-153 401l-155 -401h308zM496 845l-39 -39l-120 127l-123 -127l-38 39l128 137h66z" />
    <glyph glyph-name="Atilde" unicode="&#xc3;" horiz-adv-x="673" 
d="M668 0h-81l-72 188h-360l-73 -188h-77l285 740h91zM489 255l-153 401l-155 -401h308zM476 901l36 -42q-48 -53 -104 -53q-29 0 -75.5 20.5t-67.5 20.5q-32 0 -64 -30l-41 44q52 48 107 48q30 0 75.5 -20.5t65.5 -20.5q35 0 68 33z" />
    <glyph glyph-name="Adieresis" unicode="&#xc4;" horiz-adv-x="673" 
d="M668 0h-81l-72 188h-360l-73 -188h-77l285 740h91zM489 255l-153 401l-155 -401h308zM259 806q-19 0 -32.5 13t-13.5 33t13.5 33t32.5 13t32.5 -13t13.5 -33t-13.5 -33t-32.5 -13zM413 806q-19 0 -32.5 13t-13.5 33t13.5 33t32.5 13t32.5 -13t13.5 -33t-13.5 -33
t-32.5 -13z" />
    <glyph glyph-name="Aring" unicode="&#xc5;" horiz-adv-x="673" 
d="M668 0h-81l-72 188h-360l-73 -188h-77l285 740h91zM489 255l-153 401l-155 -401h308zM440 865q0 -43 -30.5 -73t-73.5 -30q-42 0 -72.5 30.5t-30.5 72.5t30.5 73t72.5 31q44 0 74 -30.5t30 -73.5zM388 865q0 22 -15 37t-37 15q-21 0 -36 -15.5t-15 -36.5t15 -36t36 -15
t36.5 15t15.5 36z" />
    <glyph glyph-name="AE" unicode="&#xc6;" horiz-adv-x="944" 
d="M889 0h-396v197h-281l-123 -197h-84l467 740h417v-67h-322v-253h281v-67h-281v-286h322v-67zM493 264v378l-239 -378h239z" />
    <glyph glyph-name="Ccedilla" unicode="&#xc7;" horiz-adv-x="718" 
d="M427 -84h-77l26 74q-144 16 -242.5 124t-98.5 257q0 160 112 270.5t273 110.5q164 0 278 -116l-64 -35q-89 84 -212 84q-128 0 -220.5 -95t-92.5 -221t93.5 -220.5t219.5 -94.5q117 0 208 85l56 -42q-113 -110 -265 -110l-13 -34h21q43 0 70 -21t27 -66q0 -55 -29.5 -79
t-73.5 -24q-36 0 -64 23t-33 77h42q7 -63 60 -63q27 0 42 15.5t15 45.5q0 55 -58 55z" />
    <glyph glyph-name="Egrave" unicode="&#xc8;" horiz-adv-x="541" 
d="M486 0h-396v740h396v-67h-322v-253h281v-67h-281v-286h322v-67zM353 805l-198 105l33 61l197 -111z" />
    <glyph glyph-name="Eacute" unicode="&#xc9;" horiz-adv-x="541" 
d="M486 0h-396v740h396v-67h-322v-253h281v-67h-281v-286h322v-67zM425 913l-199 -108l-32 53l198 114z" />
    <glyph glyph-name="Ecircumflex" unicode="&#xca;" horiz-adv-x="541" 
d="M486 0h-396v740h396v-67h-322v-253h281v-67h-281v-286h322v-67zM459 845l-39 -39l-120 127l-123 -127l-38 39l128 137h66z" />
    <glyph glyph-name="Edieresis" unicode="&#xcb;" horiz-adv-x="541" 
d="M486 0h-396v740h396v-67h-322v-253h281v-67h-281v-286h322v-67zM218 806q-20 0 -33 13t-13 33t13 33t33 13t33 -13t13 -33t-13 -33t-33 -13zM372 806q-20 0 -33 13t-13 33t13 33t33 13t33 -13t13 -33t-13 -33t-33 -13z" />
    <glyph glyph-name="Igrave" unicode="&#xcc;" horiz-adv-x="254" 
d="M164 0h-74v740h74v-740zM173 805l-198 105l33 61l197 -111z" />
    <glyph glyph-name="Iacute" unicode="&#xcd;" horiz-adv-x="254" 
d="M164 0h-74v740h74v-740zM243 913l-199 -108l-32 53l198 114z" />
    <glyph glyph-name="Icircumflex" unicode="&#xce;" horiz-adv-x="254" 
d="M164 0h-74v740h74v-740zM287 845l-39 -39l-120 127l-123 -127l-38 39l128 137h66z" />
    <glyph glyph-name="Idieresis" unicode="&#xcf;" horiz-adv-x="254" 
d="M164 0h-74v740h74v-740zM50 806q-20 0 -33 13t-13 33t13 33t33 13t33 -13t13 -33t-13 -33t-33 -13zM204 806q-20 0 -33 13t-13 33t13 33t33 13t33 -13t13 -33t-13 -33t-33 -13z" />
    <glyph glyph-name="Eth" unicode="&#xd0;" horiz-adv-x="718" 
d="M287 0h-197v347h-74v67h74v326h199q168 0 281 -101.5t113 -270.5q0 -168 -113 -268t-283 -100zM164 67h114q148 0 239.5 76.5t91.5 223.5q0 80 -28.5 140.5t-79 96t-112.5 52.5t-135 17h-90v-259h210v-67h-210v-280z" />
    <glyph glyph-name="Ntilde" unicode="&#xd1;" horiz-adv-x="815" 
d="M725 0h-74l-487 650v-650h-74v740h100l461 -612v612h74v-740zM557 901l36 -42q-48 -53 -104 -53q-29 0 -75.5 20.5t-67.5 20.5q-32 0 -64 -30l-41 44q52 48 107 48q30 0 75.5 -20.5t65.5 -20.5q35 0 68 33z" />
    <glyph glyph-name="Ograve" unicode="&#xd2;" horiz-adv-x="843" 
d="M808 370q0 -160 -112.5 -271.5t-273.5 -111.5t-274 110.5t-113 271.5q0 160 111 272t275 112q163 0 275 -111t112 -272zM422 54q132 0 222 92t90 223q0 132 -90 224.5t-223 92.5q-134 0 -223 -93.5t-89 -224.5q0 -132 90.5 -223t222.5 -91zM471 805l-198 105l33 61
l197 -111z" />
    <glyph glyph-name="Oacute" unicode="&#xd3;" horiz-adv-x="843" 
d="M808 370q0 -160 -112.5 -271.5t-273.5 -111.5t-274 110.5t-113 271.5q0 160 111 272t275 112q163 0 275 -111t112 -272zM422 54q132 0 222 92t90 223q0 132 -90 224.5t-223 92.5q-134 0 -223 -93.5t-89 -224.5q0 -132 90.5 -223t222.5 -91zM557 913l-199 -108l-32 53
l198 114z" />
    <glyph glyph-name="Ocircumflex" unicode="&#xd4;" horiz-adv-x="843" 
d="M808 370q0 -160 -112.5 -271.5t-273.5 -111.5t-274 110.5t-113 271.5q0 160 111 272t275 112q163 0 275 -111t112 -272zM422 54q132 0 222 92t90 223q0 132 -90 224.5t-223 92.5q-134 0 -223 -93.5t-89 -224.5q0 -132 90.5 -223t222.5 -91zM581 845l-39 -39l-120 127
l-123 -127l-38 39l128 137h66z" />
    <glyph glyph-name="Otilde" unicode="&#xd5;" horiz-adv-x="843" 
d="M808 370q0 -160 -112.5 -271.5t-273.5 -111.5t-274 110.5t-113 271.5q0 160 111 272t275 112q163 0 275 -111t112 -272zM422 54q132 0 222 92t90 223q0 132 -90 224.5t-223 92.5q-134 0 -223 -93.5t-89 -224.5q0 -132 90.5 -223t222.5 -91zM561 901l36 -42
q-48 -53 -104 -53q-29 0 -75.5 20.5t-67.5 20.5q-32 0 -64 -30l-41 44q52 48 107 48q30 0 75.5 -20.5t65.5 -20.5q35 0 68 33z" />
    <glyph glyph-name="Odieresis" unicode="&#xd6;" horiz-adv-x="843" 
d="M808 370q0 -160 -112.5 -271.5t-273.5 -111.5t-274 110.5t-113 271.5q0 160 111 272t275 112q163 0 275 -111t112 -272zM422 54q132 0 222 92t90 223q0 132 -90 224.5t-223 92.5q-134 0 -223 -93.5t-89 -224.5q0 -132 90.5 -223t222.5 -91zM344 806q-20 0 -33 13t-13 33
t13 33t33 13t33 -13t13 -33t-13 -33t-33 -13zM498 806q-20 0 -33 13t-13 33t13 33t33 13t33 -13t13 -33t-13 -33t-33 -13z" />
    <glyph glyph-name="multiply" unicode="&#xd7;" horiz-adv-x="569" 
d="M514 162l-48 -48l-181 182l-182 -182l-48 48l182 182l-181 180l48 48l181 -180l180 180l48 -48l-180 -180z" />
    <glyph glyph-name="Oslash" unicode="&#xd8;" horiz-adv-x="843" 
d="M228 -41l-52 24l35 64q-81 51 -128.5 135.5t-47.5 186.5q0 160 111 272t275 112q83 0 158 -33l34 62l54 -25l-36 -65q82 -51 129.5 -136t47.5 -186q0 -160 -112.5 -271.5t-273.5 -111.5q-83 0 -160 33zM422 54q132 0 222 92t90 223q0 81 -36.5 150t-99.5 112l-303 -551
q58 -26 127 -26zM109 368q0 -80 36 -148.5t99 -111.5l302 552q-58 26 -125 26q-134 0 -223 -93.5t-89 -224.5z" />
    <glyph glyph-name="Ugrave" unicode="&#xd9;" horiz-adv-x="792" 
d="M638 337v403h74v-413q0 -162 -87.5 -251t-228.5 -89t-228.5 89t-87.5 251v413h74v-403q0 -134 65.5 -208.5t176.5 -74.5t176.5 74.5t65.5 208.5zM458 805l-198 105l33 61l197 -111z" />
    <glyph glyph-name="Uacute" unicode="&#xda;" horiz-adv-x="792" 
d="M638 337v403h74v-413q0 -162 -87.5 -251t-228.5 -89t-228.5 89t-87.5 251v413h74v-403q0 -134 65.5 -208.5t176.5 -74.5t176.5 74.5t65.5 208.5zM542 913l-199 -108l-32 53l198 114z" />
    <glyph glyph-name="Ucircumflex" unicode="&#xdb;" horiz-adv-x="792" 
d="M638 337v403h74v-413q0 -162 -87.5 -251t-228.5 -89t-228.5 89t-87.5 251v413h74v-403q0 -134 65.5 -208.5t176.5 -74.5t176.5 74.5t65.5 208.5zM556 845l-39 -39l-120 127l-123 -127l-38 39l128 137h66z" />
    <glyph glyph-name="Udieresis" unicode="&#xdc;" horiz-adv-x="792" 
d="M638 337v403h74v-413q0 -162 -87.5 -251t-228.5 -89t-228.5 89t-87.5 251v413h74v-403q0 -134 65.5 -208.5t176.5 -74.5t176.5 74.5t65.5 208.5zM319 806q-19 0 -32.5 13t-13.5 33t13.5 33t32.5 13t32.5 -13t13.5 -33t-13.5 -33t-32.5 -13zM473 806q-19 0 -32.5 13
t-13.5 33t13.5 33t32.5 13t32.5 -13t13.5 -33t-13.5 -33t-32.5 -13z" />
    <glyph glyph-name="Yacute" unicode="&#xdd;" horiz-adv-x="611" 
d="M341 0h-74v339l-257 401h84l211 -323l215 323h81l-260 -401v-339zM451 913l-199 -108l-32 53l198 114z" />
    <glyph glyph-name="Thorn" unicode="&#xde;" horiz-adv-x="587" 
d="M164 0h-74v740h74v-139h115q57 0 103.5 -11.5t86 -36.5t61.5 -71.5t22 -111.5q0 -119 -73 -175t-200 -56h-115v-139zM164 206h111q93 0 148 36t55 128q0 164 -203 164h-111v-328z" />
    <glyph glyph-name="germandbls" unicode="&#xdf;" horiz-adv-x="582" 
d="M319 0h-92v62h92q74 0 111.5 43t37.5 105q0 68 -44.5 110.5t-123.5 42.5h-73v62h96q41 0 66 35t25 85q0 55 -32 93.5t-95 38.5q-41 0 -68.5 -17t-40.5 -48t-18 -62.5t-5 -71.5v-478h-70v488q0 122 52 187t148 65q89 0 144 -52.5t55 -135.5q0 -52 -21 -94t-52 -59
q60 -23 93 -73t33 -114q0 -88 -60 -150t-158 -62z" />
    <glyph glyph-name="agrave" unicode="&#xe0;" 
d="M551 0h-70v81q-64 -94 -185 -94q-107 0 -179 71t-72 177q0 107 73 178t179 71q121 0 184 -95v86h70v-475zM295 50q80 0 131 53.5t51 130.5q0 78 -51.5 132.5t-130.5 54.5q-78 0 -129.5 -53.5t-51.5 -133.5t51 -132t130 -52zM370 540l-198 105l33 61l197 -111z" />
    <glyph glyph-name="aacute" unicode="&#xe1;" 
d="M551 0h-70v81q-64 -94 -185 -94q-107 0 -179 71t-72 177q0 107 73 178t179 71q121 0 184 -95v86h70v-475zM295 50q80 0 131 53.5t51 130.5q0 78 -51.5 132.5t-130.5 54.5q-78 0 -129.5 -53.5t-51.5 -133.5t51 -132t130 -52zM444 648l-199 -108l-32 53l198 114z" />
    <glyph glyph-name="acircumflex" unicode="&#xe2;" 
d="M551 0h-70v81q-64 -94 -185 -94q-107 0 -179 71t-72 177q0 107 73 178t179 71q121 0 184 -95v86h70v-475zM295 50q80 0 131 53.5t51 130.5q0 78 -51.5 132.5t-130.5 54.5q-78 0 -129.5 -53.5t-51.5 -133.5t51 -132t130 -52zM452 580l-39 -39l-120 127l-123 -127l-38 39
l128 137h66z" />
    <glyph glyph-name="atilde" unicode="&#xe3;" 
d="M551 0h-70v81q-64 -94 -185 -94q-107 0 -179 71t-72 177q0 107 73 178t179 71q121 0 184 -95v86h70v-475zM295 50q80 0 131 53.5t51 130.5q0 78 -51.5 132.5t-130.5 54.5q-78 0 -129.5 -53.5t-51.5 -133.5t51 -132t130 -52zM432 636l36 -42q-48 -53 -104 -53
q-29 0 -75.5 20.5t-67.5 20.5q-32 0 -64 -30l-41 44q52 48 107 48q30 0 75.5 -20.5t65.5 -20.5q35 0 68 33z" />
    <glyph glyph-name="adieresis" unicode="&#xe4;" 
d="M551 0h-70v81q-64 -94 -185 -94q-107 0 -179 71t-72 177q0 107 73 178t179 71q121 0 184 -95v86h70v-475zM295 50q80 0 131 53.5t51 130.5q0 78 -51.5 132.5t-130.5 54.5q-78 0 -129.5 -53.5t-51.5 -133.5t51 -132t130 -52zM214 541q-20 0 -33 13.5t-13 32.5t13 32.5
t33 13.5t33 -13.5t13 -32.5t-13 -32.5t-33 -13.5zM368 541q-20 0 -33 13.5t-13 32.5t13 32.5t33 13.5t33 -13.5t13 -32.5t-13 -32.5t-33 -13.5z" />
    <glyph glyph-name="aring" unicode="&#xe5;" 
d="M551 0h-70v81q-64 -94 -185 -94q-107 0 -179 71t-72 177q0 107 73 178t179 71q121 0 184 -95v86h70v-475zM295 50q80 0 131 53.5t51 130.5q0 78 -51.5 132.5t-130.5 54.5q-78 0 -129.5 -53.5t-51.5 -133.5t51 -132t130 -52zM401 610q0 -43 -30.5 -73t-73.5 -30
q-42 0 -72.5 30.5t-30.5 72.5t30.5 73t72.5 31q43 0 73.5 -30t30.5 -74zM349 610q0 22 -15 37t-37 15q-21 0 -36 -15.5t-15 -36.5t15 -36t36 -15t36.5 15t15.5 36z" />
    <glyph glyph-name="ae" unicode="&#xe6;" horiz-adv-x="1007" 
d="M967 209h-416q8 -67 58 -113t118 -46q44 0 84 21t64 56l52 -37q-34 -48 -86.5 -75.5t-112.5 -27.5q-105 0 -177 74v-61h-70v81q-64 -94 -183 -94q-109 0 -181 71t-72 178q0 106 73 177t180 71q120 0 183 -95v86h70v-65q71 74 173 74t172.5 -73.5t70.5 -175.5v-26zM298 50
q77 0 128 53.5t51 130.5q0 78 -51 132.5t-128 54.5q-82 0 -133 -53.5t-51 -134.5q0 -80 51 -131.5t133 -51.5zM552 272h343q-11 64 -57.5 106.5t-113.5 42.5q-66 0 -113 -42.5t-59 -106.5z" />
    <glyph glyph-name="ccedilla" unicode="&#xe7;" horiz-adv-x="529" 
d="M304 -84h-77l26 74q-88 14 -148 83.5t-60 160.5q0 101 72 175.5t175 74.5q65 0 121 -32.5t90 -87.5l-57 -32q-24 40 -65.5 64.5t-89.5 24.5q-75 0 -126 -56t-51 -131q0 -76 52 -130t128 -54q50 0 90 24t64 65l56 -32q-33 -54 -87.5 -86.5t-118.5 -33.5l-13 -34h21
q43 0 70 -21t27 -66q0 -55 -29.5 -79t-73.5 -24q-36 0 -64 23t-33 77h42q7 -63 60 -63q27 0 42 15.5t15 45.5q0 55 -58 55z" />
    <glyph glyph-name="egrave" unicode="&#xe8;" horiz-adv-x="572" 
d="M532 209h-416q8 -67 58 -113t118 -46q44 0 84 21t64 56l52 -37q-34 -48 -86.5 -75.5t-112.5 -27.5q-102 0 -175 72.5t-73 175.5q0 101 70.5 175t173.5 74q102 0 172.5 -73.5t70.5 -175.5v-26zM117 272h343q-11 64 -57.5 106.5t-113.5 42.5q-66 0 -113 -42.5t-59 -106.5z
M353 540l-198 105l33 61l197 -111z" />
    <glyph glyph-name="eacute" unicode="&#xe9;" horiz-adv-x="572" 
d="M532 209h-416q8 -67 58 -113t118 -46q44 0 84 21t64 56l52 -37q-34 -48 -86.5 -75.5t-112.5 -27.5q-102 0 -175 72.5t-73 175.5q0 101 70.5 175t173.5 74q102 0 172.5 -73.5t70.5 -175.5v-26zM117 272h343q-11 64 -57.5 106.5t-113.5 42.5q-66 0 -113 -42.5t-59 -106.5z
M412 648l-199 -108l-32 53l198 114z" />
    <glyph glyph-name="ecircumflex" unicode="&#xea;" horiz-adv-x="572" 
d="M532 209h-416q8 -67 58 -113t118 -46q44 0 84 21t64 56l52 -37q-34 -48 -86.5 -75.5t-112.5 -27.5q-102 0 -175 72.5t-73 175.5q0 101 70.5 175t173.5 74q102 0 172.5 -73.5t70.5 -175.5v-26zM117 272h343q-11 64 -57.5 106.5t-113.5 42.5q-66 0 -113 -42.5t-59 -106.5z
M449 580l-39 -39l-120 127l-123 -127l-38 39l128 137h66z" />
    <glyph glyph-name="edieresis" unicode="&#xeb;" horiz-adv-x="572" 
d="M532 209h-416q8 -67 58 -113t118 -46q44 0 84 21t64 56l52 -37q-34 -48 -86.5 -75.5t-112.5 -27.5q-102 0 -175 72.5t-73 175.5q0 101 70.5 175t173.5 74q102 0 172.5 -73.5t70.5 -175.5v-26zM117 272h343q-11 64 -57.5 106.5t-113.5 42.5q-66 0 -113 -42.5t-59 -106.5z
M212 541q-20 0 -33 13.5t-13 32.5t13 32.5t33 13.5t33 -13.5t13 -32.5t-13 -32.5t-33 -13.5zM366 541q-20 0 -33 13.5t-13 32.5t13 32.5t33 13.5t33 -13.5t13 -32.5t-13 -32.5t-33 -13.5z" />
    <glyph glyph-name="igrave" unicode="&#xec;" horiz-adv-x="240" 
d="M155 0h-70v475h70v-475zM198 540l-198 105l33 61l197 -111z" />
    <glyph glyph-name="iacute" unicode="&#xed;" horiz-adv-x="240" 
d="M155 0h-70v475h70v-475zM241 648l-199 -108l-32 53l198 114z" />
    <glyph glyph-name="icircumflex" unicode="&#xee;" horiz-adv-x="240" 
d="M155 0h-70v475h70v-475zM280 580l-39 -39l-120 127l-123 -127l-38 39l128 137h66z" />
    <glyph glyph-name="idieresis" unicode="&#xef;" horiz-adv-x="240" 
d="M155 0h-70v475h70v-475zM43 541q-19 0 -32.5 13.5t-13.5 32.5t13.5 32.5t32.5 13.5t32.5 -13.5t13.5 -32.5t-13.5 -32.5t-32.5 -13.5zM197 541q-19 0 -32.5 13.5t-13.5 32.5t13.5 32.5t32.5 13.5t32.5 -13.5t13.5 -32.5t-13.5 -32.5t-32.5 -13.5z" />
    <glyph glyph-name="eth" unicode="&#xf0;" horiz-adv-x="585" 
d="M392 708l-69 -54q102 -71 159.5 -171t57.5 -219q0 -63 -17 -113t-43.5 -80t-61 -49.5t-66 -27t-62.5 -7.5q-99 0 -172 73t-73 175q0 101 72.5 175t174.5 74q90 0 151 -60q-56 113 -173 188l-77 -60l-35 40l63 49q-45 25 -119 56l47 44q63 -22 126 -57l83 65zM293 50
q76 0 127 55.5t51 130.5q0 77 -52 131t-127 54q-76 0 -127 -55.5t-51 -131.5t51.5 -130t127.5 -54z" />
    <glyph glyph-name="ntilde" unicode="&#xf1;" horiz-adv-x="578" 
d="M503 0h-70v244q0 84 -29 130.5t-105 46.5q-81 0 -112.5 -51.5t-31.5 -140.5v-229h-70v475h70v-67q53 76 151 76q93 0 145 -55.5t52 -164.5v-264zM424 636l36 -42q-48 -53 -104 -53q-29 0 -75.5 20.5t-67.5 20.5q-32 0 -64 -30l-41 44q52 48 107 48q30 0 75.5 -20.5
t65.5 -20.5q35 0 68 33z" />
    <glyph glyph-name="ograve" unicode="&#xf2;" horiz-adv-x="585" 
d="M540 235q0 -102 -73.5 -175t-174.5 -73t-174 72.5t-73 174.5q0 101 72 175.5t174 74.5t175.5 -74t73.5 -175zM293 50q76 0 127 55.5t51 130.5q0 77 -52 131t-127 54q-76 0 -127 -55.5t-51 -131.5t51.5 -130t127.5 -54zM346 540l-198 105l33 61l197 -111z" />
    <glyph glyph-name="oacute" unicode="&#xf3;" horiz-adv-x="585" 
d="M540 235q0 -102 -73.5 -175t-174.5 -73t-174 72.5t-73 174.5q0 101 72 175.5t174 74.5t175.5 -74t73.5 -175zM293 50q76 0 127 55.5t51 130.5q0 77 -52 131t-127 54q-76 0 -127 -55.5t-51 -131.5t51.5 -130t127.5 -54zM418 648l-199 -108l-32 53l198 114z" />
    <glyph glyph-name="ocircumflex" unicode="&#xf4;" horiz-adv-x="585" 
d="M540 235q0 -102 -73.5 -175t-174.5 -73t-174 72.5t-73 174.5q0 101 72 175.5t174 74.5t175.5 -74t73.5 -175zM293 50q76 0 127 55.5t51 130.5q0 77 -52 131t-127 54q-76 0 -127 -55.5t-51 -131.5t51.5 -130t127.5 -54zM452 580l-39 -39l-120 127l-123 -127l-38 39
l128 137h66z" />
    <glyph glyph-name="otilde" unicode="&#xf5;" horiz-adv-x="585" 
d="M540 235q0 -102 -73.5 -175t-174.5 -73t-174 72.5t-73 174.5q0 101 72 175.5t174 74.5t175.5 -74t73.5 -175zM293 50q76 0 127 55.5t51 130.5q0 77 -52 131t-127 54q-76 0 -127 -55.5t-51 -131.5t51.5 -130t127.5 -54zM432 636l36 -42q-48 -53 -104 -53q-29 0 -75.5 20.5
t-67.5 20.5q-32 0 -64 -30l-41 44q52 48 107 48q30 0 75.5 -20.5t65.5 -20.5q35 0 68 33z" />
    <glyph glyph-name="odieresis" unicode="&#xf6;" horiz-adv-x="585" 
d="M540 235q0 -102 -73.5 -175t-174.5 -73t-174 72.5t-73 174.5q0 101 72 175.5t174 74.5t175.5 -74t73.5 -175zM293 50q76 0 127 55.5t51 130.5q0 77 -52 131t-127 54q-76 0 -127 -55.5t-51 -131.5t51.5 -130t127.5 -54zM215 541q-19 0 -32.5 13.5t-13.5 32.5t13.5 32.5
t32.5 13.5t32.5 -13.5t13.5 -32.5t-13.5 -32.5t-32.5 -13.5zM369 541q-19 0 -32.5 13.5t-13.5 32.5t13.5 32.5t32.5 13.5t32.5 -13.5t13.5 -32.5t-13.5 -32.5t-32.5 -13.5z" />
    <glyph glyph-name="divide" unicode="&#xf7;" horiz-adv-x="604" 
d="M554 312h-504v68h504v-68zM302 114q-20 0 -33 13t-13 33t13 33t33 13t33 -13t13 -33t-13 -33t-33 -13zM302 486q-20 0 -33 13t-13 33t13 33t33 13t33 -13t13 -33t-13 -33t-33 -13z" />
    <glyph glyph-name="oslash" unicode="&#xf8;" horiz-adv-x="585" 
d="M185 -79l-48 20l33 78q-57 33 -91 90t-34 125q0 101 72 175.5t174 74.5q38 0 74 -12l34 80l49 -21l-35 -80q57 -34 92 -91.5t35 -124.5q0 -102 -73.5 -175t-174.5 -73q-38 0 -74 12zM293 50q76 0 127 55.5t51 130.5q0 49 -22.5 90t-60.5 66l-145 -335q22 -7 50 -7z
M114 234q0 -48 22 -89t60 -66l144 335q-26 7 -48 7q-76 0 -127 -55.5t-51 -131.5z" />
    <glyph glyph-name="ugrave" unicode="&#xf9;" horiz-adv-x="574" 
d="M426 211v264h70v-284q0 -108 -53 -156t-156 -48t-156 48t-53 156v284h70v-264q0 -80 29.5 -120.5t109.5 -40.5t109.5 40.5t29.5 120.5zM339 540l-198 105l33 61l197 -111z" />
    <glyph glyph-name="uacute" unicode="&#xfa;" horiz-adv-x="574" 
d="M426 211v264h70v-284q0 -108 -53 -156t-156 -48t-156 48t-53 156v284h70v-264q0 -80 29.5 -120.5t109.5 -40.5t109.5 40.5t29.5 120.5zM433 648l-199 -108l-32 53l198 114z" />
    <glyph glyph-name="ucircumflex" unicode="&#xfb;" horiz-adv-x="574" 
d="M426 211v264h70v-284q0 -108 -53 -156t-156 -48t-156 48t-53 156v284h70v-264q0 -80 29.5 -120.5t109.5 -40.5t109.5 40.5t29.5 120.5zM447 580l-39 -39l-120 127l-123 -127l-38 39l128 137h66z" />
    <glyph glyph-name="udieresis" unicode="&#xfc;" horiz-adv-x="574" 
d="M426 211v264h70v-284q0 -108 -53 -156t-156 -48t-156 48t-53 156v284h70v-264q0 -80 29.5 -120.5t109.5 -40.5t109.5 40.5t29.5 120.5zM210 541q-20 0 -33 13.5t-13 32.5t13 32.5t33 13.5t33 -13.5t13 -32.5t-13 -32.5t-33 -13.5zM364 541q-20 0 -33 13.5t-13 32.5
t13 32.5t33 13.5t33 -13.5t13 -32.5t-13 -32.5t-33 -13.5z" />
    <glyph glyph-name="yacute" unicode="&#xfd;" horiz-adv-x="457" 
d="M184 -253h-71l89 248l-192 480h74l153 -385l138 385h72zM383 648l-199 -108l-32 53l198 114z" />
    <glyph glyph-name="thorn" unicode="&#xfe;" 
d="M155 81v-334h-70v993h70v-351q63 95 183 95q107 0 180 -71t73 -177q0 -107 -72 -178t-181 -71q-119 0 -183 94zM522 233q0 81 -51 134.5t-133 53.5q-77 0 -128 -54.5t-51 -132.5q0 -77 51 -130.5t128 -53.5q82 0 133 51.5t51 131.5z" />
    <glyph glyph-name="ydieresis" unicode="&#xff;" horiz-adv-x="457" 
d="M184 -253h-71l89 248l-192 480h74l153 -385l138 385h72zM160 541q-20 0 -33 13.5t-13 32.5t13 32.5t33 13.5t33 -13.5t13 -32.5t-13 -32.5t-33 -13.5zM314 541q-20 0 -33 13.5t-13 32.5t13 32.5t33 13.5t33 -13.5t13 -32.5t-13 -32.5t-33 -13.5z" />
    <glyph glyph-name="dotlessi" unicode="&#x131;" horiz-adv-x="240" 
d="M155 0h-70v475h70v-475z" />
    <glyph glyph-name="Lslash" unicode="&#x141;" horiz-adv-x="537" 
d="M517 0h-427v263l-78 -56v77l78 56v400h74v-347l153 112v-77l-153 -112v-249h353v-67z" />
    <glyph glyph-name="lslash" unicode="&#x142;" horiz-adv-x="258" 
d="M249 53v-59q-25 -7 -51 -7q-52 0 -82.5 33t-30.5 95v170l-70 -52v71l70 51v385h70v-334l76 55v-70l-76 -55v-188q0 -54 14 -75.5t52 -21.5q17 0 28 2z" />
    <glyph glyph-name="OE" unicode="&#x152;" horiz-adv-x="1185" 
d="M1130 0h-396v142q-53 -72 -135 -113.5t-177 -41.5q-161 0 -274 110.5t-113 271.5q0 160 111 272t275 112q96 0 177.5 -41.5t135.5 -113.5v142h396v-67h-322v-253h281v-67h-281v-286h322v-67zM422 54q132 0 222 92t90 223q0 132 -90 224.5t-223 92.5q-134 0 -223 -93.5
t-89 -224.5q0 -132 90.5 -223t222.5 -91z" />
    <glyph glyph-name="oe" unicode="&#x153;" horiz-adv-x="999" 
d="M959 209h-416q8 -67 58 -113t118 -46q44 0 84 21t64 56l52 -37q-34 -48 -86.5 -75.5t-112.5 -27.5q-67 0 -124 33.5t-91 89.5q-33 -56 -89.5 -89.5t-123.5 -33.5q-101 0 -174 72.5t-73 172.5q0 103 72 177.5t175 74.5q66 0 123 -34t90 -90q32 56 88 90t123 34
q102 0 172.5 -73.5t70.5 -175.5v-26zM292 50q77 0 128 55t51 133q0 75 -52.5 129t-126.5 54q-76 0 -127 -55.5t-51 -132.5q0 -75 52 -129t126 -54zM544 272h343q-11 64 -57.5 106.5t-113.5 42.5q-66 0 -113 -42.5t-59 -106.5z" />
    <glyph glyph-name="Scaron" unicode="&#x160;" horiz-adv-x="529" 
d="M30 107l47 57q79 -110 179 -110q66 0 112.5 42.5t46.5 104.5q0 37 -19 64t-49.5 43.5t-68 31t-74.5 31t-67.5 38t-49.5 58t-19 85.5q0 86 56 143.5t164 57.5q110 0 186 -70l-46 -53q-64 56 -142 56q-68 0 -106 -35t-38 -90q0 -33 15 -58.5t39.5 -41t55.5 -30t63.5 -25.5
t63.5 -28t55.5 -37.5t39.5 -54t15 -76.5q0 -98 -67.5 -160.5t-161.5 -62.5q-70 0 -134.5 36t-95.5 84zM301 806h-66l-126 137l39 39l120 -127l123 127l38 -39z" />
    <glyph glyph-name="scaron" unicode="&#x161;" horiz-adv-x="424" 
d="M40 44l39 55q62 -49 135 -49q45 0 72.5 19t27.5 53q0 31 -26 49.5t-63.5 28t-75 21.5t-63.5 41t-26 77q0 65 44.5 105t115.5 40q81 0 147 -47l-37 -55q-48 39 -111 39q-40 0 -64.5 -20.5t-24.5 -51.5q0 -25 19 -42t47 -25t61 -19t61 -23.5t47 -40.5t19 -69
q0 -68 -47.5 -105.5t-121.5 -37.5q-100 0 -175 57zM246 541h-66l-126 137l39 39l120 -127l123 127l38 -39z" />
    <glyph glyph-name="Ydieresis" unicode="&#x178;" horiz-adv-x="611" 
d="M341 0h-74v339l-257 401h84l211 -323l215 323h81l-260 -401v-339zM228 806q-20 0 -33 13t-13 33t13 33t33 13t33 -13t13 -33t-13 -33t-33 -13zM382 806q-20 0 -33 13t-13 33t13 33t33 13t33 -13t13 -33t-13 -33t-33 -13z" />
    <glyph glyph-name="Zcaron" unicode="&#x17d;" horiz-adv-x="648" 
d="M598 0h-558v67l469 606h-458v67h546v-67l-468 -606h469v-67zM356 806h-66l-126 137l39 39l120 -127l123 127l38 -39z" />
    <glyph glyph-name="zcaron" unicode="&#x17e;" horiz-adv-x="471" 
d="M421 0h-371v61l287 351h-287v63h371v-63l-284 -349h284v-63zM267 541h-66l-126 137l39 39l120 -127l123 127l38 -39z" />
    <glyph glyph-name="florin" unicode="&#x192;" horiz-adv-x="274" 
d="M2 -170v64q38 2 58 20t20 65v433h-60v63h60v56q0 90 41 132.5t137 43.5v-64q-59 -2 -83.5 -26.5t-24.5 -88.5v-53h99v-63h-99v-426q0 -74 -36.5 -114.5t-111.5 -41.5z" />
    <glyph glyph-name="circumflex" unicode="&#x2c6;" horiz-adv-x="420" 
d="M370 580l-39 -39l-120 127l-123 -127l-38 39l128 137h66z" />
    <glyph glyph-name="caron" unicode="&#x2c7;" horiz-adv-x="420" 
d="M242 541h-66l-126 137l39 39l120 -127l123 127l38 -39z" />
    <glyph glyph-name="breve" unicode="&#x2d8;" horiz-adv-x="453" 
d="M289 644h52q0 -44 -34 -73.5t-90 -29.5q-55 0 -89 30t-34 73h52q0 -22 18.5 -36.5t52.5 -14.5q35 0 53.5 14t18.5 37z" />
    <glyph glyph-name="dotaccent" unicode="&#x2d9;" horiz-adv-x="192" 
d="M96 541q-20 0 -33 13.5t-13 32.5t13 32.5t33 13.5t33 -13.5t13 -32.5t-13 -32.5t-33 -13.5z" />
    <glyph glyph-name="ring" unicode="&#x2da;" horiz-adv-x="307" 
d="M257 600q0 -43 -30.5 -73t-73.5 -30q-42 0 -72.5 30.5t-30.5 72.5t30.5 73t72.5 31q43 0 73.5 -30t30.5 -74zM205 600q0 22 -15 37t-37 15q-21 0 -36 -15.5t-15 -36.5t15 -36t36 -15t36.5 15t15.5 36z" />
    <glyph glyph-name="ogonek" unicode="&#x2db;" horiz-adv-x="248" 
d="M198 -141v-41q-21 -7 -43 -7q-44 0 -74.5 25.5t-30.5 73.5q0 51 29 90h49q-29 -41 -29 -76q0 -27 16 -48.5t46 -21.5q21 0 37 5z" />
    <glyph glyph-name="tilde" unicode="&#x2dc;" horiz-adv-x="452" 
d="M366 636l36 -42q-48 -53 -104 -53q-29 0 -75.5 20.5t-67.5 20.5q-32 0 -64 -30l-41 44q52 48 107 48q30 0 75.5 -20.5t65.5 -20.5q35 0 68 33z" />
    <glyph glyph-name="hungarumlaut" unicode="&#x2dd;" horiz-adv-x="477" 
d="M427 675l-164 -135l-38 46l162 135zM252 675l-164 -135l-38 46l161 135z" />
    <glyph glyph-name="endash" unicode="&#x2013;" horiz-adv-x="569" 
d="M549 224h-529v67h529v-67z" />
    <glyph glyph-name="emdash" unicode="&#x2014;" horiz-adv-x="1014" 
d="M994 224h-974v67h974v-67z" />
    <glyph glyph-name="quoteleft" unicode="&#x2018;" horiz-adv-x="192" 
d="M132 740v-38q-15 -2 -28 -16t-14 -34q2 1 8 1q18 0 31 -13.5t13 -32.5q0 -20 -13.5 -33t-33.5 -13q-23 0 -35.5 17.5t-12.5 45.5q0 43 23.5 79t61.5 37z" />
    <glyph glyph-name="quoteright" unicode="&#x2019;" horiz-adv-x="192" 
d="M60 566v38q15 2 28 16t14 34q-2 -1 -8 -1q-18 0 -31 13.5t-13 32.5q0 20 13.5 33t33.5 13q23 0 35.5 -17.5t12.5 -45.5q0 -43 -23.5 -79t-61.5 -37z" />
    <glyph glyph-name="quotesinglbase" unicode="&#x201a;" horiz-adv-x="192" 
d="M60 -92v38q15 2 28 16t14 34q-2 -1 -8 -1q-18 0 -31 13.5t-13 32.5q0 20 13.5 33t33.5 13q23 0 35.5 -17.5t12.5 -45.5q0 -43 -23.5 -79t-61.5 -37z" />
    <glyph glyph-name="quotedblleft" unicode="&#x201c;" horiz-adv-x="347" 
d="M132 740v-38q-15 -2 -28 -16t-14 -34q2 1 8 1q18 0 31 -13.5t13 -32.5q0 -20 -13.5 -33t-33.5 -13q-23 0 -35.5 17.5t-12.5 45.5q0 43 23.5 79t61.5 37zM287 740v-38q-15 -2 -28 -16t-14 -34q2 1 8 1q18 0 31 -13.5t13 -32.5q0 -20 -13.5 -33t-33.5 -13q-23 0 -35.5 17.5
t-12.5 45.5q0 43 23.5 79t61.5 37z" />
    <glyph glyph-name="quotedblright" unicode="&#x201d;" horiz-adv-x="347" 
d="M215 566v38q15 2 28 16t14 34q-2 -1 -8 -1q-18 0 -31 13.5t-13 32.5q0 20 13.5 33t33.5 13q23 0 35.5 -17.5t12.5 -45.5q0 -43 -23.5 -79t-61.5 -37zM60 566v38q15 2 28 16t14 34q-2 -1 -8 -1q-18 0 -31 13.5t-13 32.5q0 20 13.5 33t33.5 13q23 0 35.5 -17.5t12.5 -45.5
q0 -43 -23.5 -79t-61.5 -37z" />
    <glyph glyph-name="quotedblbase" unicode="&#x201e;" horiz-adv-x="347" 
d="M215 -92v38q15 2 28 16t14 34q-2 -1 -8 -1q-18 0 -31 13.5t-13 32.5q0 20 13.5 33t33.5 13q23 0 35.5 -17.5t12.5 -45.5q0 -43 -23.5 -79t-61.5 -37zM60 -92v38q15 2 28 16t14 34q-2 -1 -8 -1q-18 0 -31 13.5t-13 32.5q0 20 13.5 33t33.5 13q23 0 35.5 -17.5t12.5 -45.5
q0 -43 -23.5 -79t-61.5 -37z" />
    <glyph glyph-name="dagger" unicode="&#x2020;" horiz-adv-x="534" 
d="M304 -253h-74v708h-180v67h180v218h74v-218h180v-67h-180v-708z" />
    <glyph glyph-name="daggerdbl" unicode="&#x2021;" horiz-adv-x="554" 
d="M314 -253h-74v265h-180v67h180v405h-180v67h180v189h74v-189h180v-67h-180v-405h180v-67h-180v-265z" />
    <glyph glyph-name="bullet" unicode="&#x2022;" horiz-adv-x="445" 
d="M223 222q-63 0 -108 46t-45 109q0 64 45 109.5t109 45.5q63 0 107 -46t44 -109t-44.5 -109t-107.5 -46z" />
    <glyph glyph-name="ellipsis" unicode="&#x2026;" horiz-adv-x="876" 
d="M146 -5q-20 0 -33 13.5t-13 32.5t13 32.5t33 13.5t33 -13.5t13 -32.5t-13 -32.5t-33 -13.5zM438 -5q-20 0 -33 13.5t-13 32.5t13 32.5t33 13.5t33 -13.5t13 -32.5t-13 -32.5t-33 -13.5zM730 -5q-20 0 -33 13.5t-13 32.5t13 32.5t33 13.5t33 -13.5t13 -32.5t-13 -32.5
t-33 -13.5z" />
    <glyph glyph-name="perthousand" unicode="&#x2030;" horiz-adv-x="1309" 
d="M849 173q0 -77 -56 -132t-133 -55t-133 55t-56 132t56 132t133 55t133 -55t56 -132zM660 40q54 0 92 39t38 94t-37.5 93.5t-92.5 38.5t-92.5 -38.5t-37.5 -93.5t38 -94t92 -39zM280 0h-67l406 740h67zM428 567q0 -77 -56 -132t-133 -55t-133 55t-56 132t56 132t133 55
t133 -55t56 -132zM239 435q55 0 92.5 38.5t37.5 93.5t-38 94t-92 39t-92 -39t-38 -94t37.5 -93.5t92.5 -38.5zM1259 173q0 -77 -56 -132t-133 -55t-133 55t-56 132t56 132t133 55t133 -55t56 -132zM1070 40q54 0 92 39t38 94t-37.5 93.5t-92.5 38.5t-92.5 -38.5t-37.5 -93.5
t38 -94t92 -39z" />
    <glyph glyph-name="guilsinglleft" unicode="&#x2039;" horiz-adv-x="284" 
d="M244 52h-77l-127 201l127 199h75l-124 -199z" />
    <glyph glyph-name="guilsinglright" unicode="&#x203a;" horiz-adv-x="284" 
d="M117 52h-77l126 201l-124 199h75l127 -199z" />
    <glyph glyph-name="fraction" unicode="&#x2044;" horiz-adv-x="166" 
d="M-86 0h-67l406 740h67z" />
    <glyph glyph-name="Euro" unicode="&#x20ac;" horiz-adv-x="582" 
d="M455 169h75q-4 -80 -58 -131t-148 -51q-112 0 -172 78t-66 207h-86l25 63h61v70h-76l25 63h51q3 123 65 204t173 81q90 0 146.5 -51t61.5 -132h-78q-4 52 -36.5 84t-93.5 32q-80 0 -119.5 -60t-44.5 -158h275l-25 -63h-250v-70h232l-25 -63h-206q4 -100 40.5 -159
t122.5 -59q124 0 131 115z" />
    <glyph glyph-name="trademark" unicode="&#x2122;" horiz-adv-x="748" 
d="M678 740v-342h-52v260l-92 -105h-32l-91 104v-259h-52v342h54l105 -126l113 126h47zM190 398h-52v290h-88v52h227v-52h-87v-290z" />
    <glyph glyph-name="minus" unicode="&#x2212;" horiz-adv-x="604" 
d="M554 312h-504v68h504v-68z" />
    <glyph glyph-name="W.alt" horiz-adv-x="957" 
d="M666 0h-73l-116 309l-117 -309h-73l-277 740h82l233 -648l115 316l-124 332h82l81 -225l82 225h80l-125 -329l115 -319l236 648h80z" />
    <glyph glyph-name="g.alt" horiz-adv-x="504" 
d="M462 417h-61q54 -59 54 -136q0 -87 -58 -144.5t-147 -57.5q-44 0 -79 15q-2 0 -4.5 0.5t-3.5 0.5q-17 0 -29 -12t-12 -29t12 -29t31 -12q40 16 90 16q85 0 137.5 -42t52.5 -102t-51.5 -101.5t-136.5 -41.5q-84 0 -133.5 41t-49.5 102q0 52 35 90q-41 28 -41 79
q0 52 43 80q-61 61 -61 152q0 84 56.5 141t146.5 57q29 0 58 -9h151v-58zM253 141q59 0 95.5 41.5t36.5 100.5q0 60 -37.5 100t-94.5 40q-60 0 -96.5 -39t-36.5 -104q0 -59 37.5 -99t95.5 -40zM380 -114q0 35 -32.5 58t-91.5 23t-88 -23t-29 -59t29 -58.5t88 -22.5
q60 0 92 23.5t32 58.5z" />
    <glyph glyph-name="g.alt2" horiz-adv-x="533" 
d="M478 -70q0 -77 -63 -132.5t-149 -55.5t-148.5 55t-62.5 133q0 100 97 156q-48 29 -75 76t-27 103q0 89 63 154t152 65q33 0 61 -9h156v-58h-61q62 -65 62 -151q0 -56 -28 -103.5t-76 -76.5q46 -27 72.5 -68t26.5 -88zM119 267q0 -60 42 -105t104 -45t105.5 44.5
t43.5 106.5t-43.5 107.5t-104.5 45.5q-62 0 -104.5 -47t-42.5 -107zM267 -195q58 0 97 37t39 88t-40.5 86.5t-95.5 35.5q-54 0 -95.5 -35t-41.5 -87t39.5 -88.5t97.5 -36.5z" />
    <glyph glyph-name="ampersand.alt" horiz-adv-x="656" 
d="M606 362h-97v-118q0 -127 -62.5 -192t-158.5 -65q-100 0 -166.5 66.5t-66.5 164.5q0 59 27 106t79 72q-42 23 -65 66.5t-23 94.5q0 85 58.5 140.5t141.5 55.5q81 0 138 -51l-41 -56q-36 42 -94 42q-54 0 -91 -35.5t-37 -95.5q0 -58 35 -93t89 -35h163v129h74v-129h97v-67
zM435 244v118h-138q-81 0 -123.5 -37t-42.5 -107q0 -73 42.5 -119t114.5 -46q67 0 107 46t40 145z" />
    <glyph glyph-name="ampersand.alt2" horiz-adv-x="619" 
d="M473 335l61 37q35 -60 35 -128q0 -106 -75.5 -181.5t-181.5 -75.5t-181.5 75.5t-75.5 181.5q0 66 31.5 123t84.5 91q-40 50 -40 114q0 75 53 128t128 53q48 0 89 -24t66 -64l-53 -37q-34 60 -101 60q-49 0 -78 -33t-29 -84q0 -50 27.5 -82.5t77.5 -32.5q68 0 105 67
l55 -38q-24 -43 -66 -68.5t-93 -25.5q-44 0 -86 21q-44 -24 -69.5 -69t-25.5 -99q0 -80 51.5 -135t129.5 -55t129.5 55t51.5 135q0 49 -20 91z" />
    <glyph glyph-name="zero.osf" horiz-adv-x="585" 
d="M540 235q0 -102 -73.5 -175t-174.5 -73t-174 72.5t-73 174.5q0 101 72 175.5t174 74.5t175.5 -74t73.5 -175zM293 50q76 0 127 55.5t51 130.5q0 77 -52 131t-127 54q-76 0 -127 -55.5t-51 -131.5t51.5 -130t127.5 -54z" />
    <glyph glyph-name="one.osf" horiz-adv-x="274" 
d="M189 0h-70v412h-104v63h174v-475z" />
    <glyph glyph-name="two.osf" horiz-adv-x="412" 
d="M377 0h-337v55q265 159 265 276q0 35 -21.5 62.5t-71.5 27.5q-44 0 -72 -23t-32 -70h-69q5 74 52 115t125 41q76 0 117 -39.5t41 -108.5q0 -72 -54.5 -139t-186.5 -134h244v-63z" />
    <glyph glyph-name="three.osf" horiz-adv-x="496" 
d="M254 145h-32v62h35q41 0 68.5 34t27.5 79q0 46 -30.5 74t-75.5 28q-49 0 -79.5 -33.5t-30.5 -80.5v-11h-69v11q0 71 52.5 123.5t126.5 52.5q71 0 123 -48t52 -120q0 -43 -20 -81.5t-57 -58.5q44 -23 70 -67t26 -98q0 -83 -58.5 -136t-138.5 -53q-84 0 -144 57.5
t-60 139.5h69q0 -58 37.5 -96.5t98.5 -38.5q56 0 91.5 33.5t35.5 90.5q0 58 -33.5 97.5t-84.5 39.5z" />
    <glyph glyph-name="four.osf" horiz-adv-x="509" 
d="M392 -168h-66v168h-291v67l291 410h66v-414h77v-63h-77v-168zM322 63v306h-1l-213 -306h214z" />
    <glyph glyph-name="five.osf" horiz-adv-x="517" 
d="M417 412h-235l-31 -159q45 30 114 30q96 0 156.5 -67.5t60.5 -159.5q0 -98 -67.5 -166t-161.5 -68q-90 0 -157 63t-71 154h69q4 -67 48 -111t111 -44q72 0 116 49t44 121q0 71 -43 118t-112 47q-82 0 -125 -58l-56 35l47 279h293v-63z" />
    <glyph glyph-name="six.osf" horiz-adv-x="536" 
d="M330 662l-148 -259q43 24 85 24q90 0 157 -65.5t67 -155.5q0 -89 -66.5 -154t-156.5 -65t-156.5 65t-66.5 154q0 55 40 140t171 316h74zM269 49q66 0 109.5 46.5t43.5 111.5q0 67 -44.5 112.5t-109.5 45.5q-66 0 -110 -47t-44 -112q0 -66 44.5 -111.5t110.5 -45.5z" />
    <glyph glyph-name="seven.osf" horiz-adv-x="413" 
d="M141 -168h-73l254 580h-317v63h388v-63z" />
    <glyph glyph-name="eight.osf" horiz-adv-x="551" 
d="M402 410q48 -32 76 -83t28 -110q0 -94 -68 -162t-163 -68q-94 0 -162 67.5t-68 162.5q0 59 27.5 110t74.5 83q-34 45 -34 101q0 67 47.5 114.5t114.5 47.5t115 -47.5t48 -114.5q0 -55 -36 -101zM276 49q70 0 116 50.5t46 119.5q0 70 -47.5 119.5t-115.5 49.5
q-69 0 -115.5 -51t-46.5 -120t47 -118.5t116 -49.5zM343 439q27 27 27 71q0 42 -27 70.5t-68 28.5q-40 0 -67 -28.5t-27 -71.5q0 -42 26 -70q33 11 67 11t69 -11z" />
    <glyph glyph-name="nine.osf" horiz-adv-x="536" 
d="M280 -191h-74l148 259q-43 -24 -85 -24q-90 0 -157 65.5t-67 155.5q0 89 66.5 154t156.5 65t156.5 -65t66.5 -154q0 -55 -40 -140t-171 -316zM268 106q66 0 110 47t44 112q0 66 -44.5 111.5t-110.5 45.5t-109.5 -46.5t-43.5 -111.5q0 -67 44.5 -112.5t109.5 -45.5z" />
    </font>
</defs>
</svg>
